P2
136 90
255
255 255 255 255 255 255 255 255 255 255 255 255 255 255 255 255 254 254 254 254 254 254 254 254 254 254 254 254 254 254 254 254 254 254 254 254 254 254 254 254 254 254 254 254 254 254 254 254 254 253 252 252 253 253 251 250 252 252 251 251 250 250 250 252 254 252 252 252 253 253 254 254 254 254 254 254 254 254 253 253 255 254 254 254 254 254 254 254 254 254 254 254 254 254 254 255 253 253 253 253 252 252 252 252 253 253 254 254 254 254 253 254 254 254 254 254 254 254 255 255 255 255 255 255 255 255 255 255 255 255 255 255 255 255 255 255 
255 255 255 255 255 255 255 255 255 255 255 255 255 255 255 255 254 254 254 254 254 254 254 254 254 254 254 254 254 254 254 254 254 254 254 254 254 254 254 254 254 254 254 254 254 254 254 254 254 253 252 252 253 252 250 250 252 251 251 251 251 250 251 253 254 253 252 253 253 254 254 254 254 254 254 254 254 254 253 254 254 255 255 255 255 255 255 255 255 255 255 255 255 255 255 255 254 253 253 254 252 253 252 253 253 253 254 254 254 254 254 254 254 254 255 254 255 255 255 255 255 255 255 255 255 255 255 255 255 255 255 255 255 255 255 255 
255 255 255 255 255 255 255 255 252 255 251 239 255 255 239 255 254 254 252 251 252 254 254 254 254 254 254 248 249 254 254 251 254 253 254 244 254 243 254 254 254 249 248 254 254 254 254 254 242 248 253 253 242 253 241 249 228 251 252 242 253 251 251 252 252 253 253 246 245 254 254 254 251 254 255 253 251 253 254 254 248 254 254 249 254 254 249 254 244 254 254 244 247 252 243 255 253 253 244 254 253 254 250 253 253 246 253 249 253 243 253 254 254 250 251 255 254 250 251 255 252 252 252 254 254 255 255 255 255 255 255 255 255 255 255 255 
255 255 255 255 255 255 255 255 252 249 249 247 245 243 244 255 255 254 255 254 255 254 251 252 250 254 255 254 252 254 251 245 247 248 236 254 255 254 254 234 252 254 255 254 254 243 238 240 254 254 246 242 253 252 166 136 133 133 137 138 148 155 195 247 253 243 246 253 253 243 239 253 252 253 253 254 254 255 254 249 255 255 251 252 254 255 250 247 254 248 254 255 254 255 249 239 247 254 254 253 241 243 245 252 253 249 240 253 232 253 246 254 255 254 253 252 251 251 254 255 252 252 252 254 254 255 255 255 255 255 255 255 255 255 255 255 
255 255 255 255 255 255 255 255 255 249 255 255 255 255 255 237 240 243 246 250 253 255 254 254 254 255 253 247 248 255 254 255 246 254 251 254 248 235 254 254 254 249 245 247 254 254 254 255 236 254 254 253 244 191 139 135 141 133 136 139 136 127 127 127 132 146 186 229 251 252 253 250 253 253 253 254 254 254 254 253 232 237 250 253 248 249 253 253 252 234 250 251 238 246 251 253 250 252 253 253 248 248 254 254 254 231 254 253 252 253 251 243 254 254 251 248 253 254 254 247 252 252 252 254 254 255 254 254 255 255 255 255 255 255 255 255 
255 255 255 255 255 255 255 255 255 247 237 230 248 248 243 199 154 147 139 136 137 145 159 171 210 208 205 203 205 214 224 229 245 254 252 251 254 250 254 237 254 254 251 245 249 254 252 242 254 254 246 254 247 182 135 139 140 131 136 145 143 131 130 130 128 126 126 127 151 228 252 249 249 249 251 254 254 248 241 239 251 250 246 232 206 206 221 219 227 197 185 191 218 223 200 206 213 204 192 217 210 219 211 228 253 234 252 253 230 253 246 253 243 253 253 253 246 251 254 254 252 252 252 254 254 255 254 254 255 255 255 255 255 255 255 255 
255 255 255 255 255 255 255 255 250 255 255 255 255 163 131 127 127 127 127 127 128 127 127 127 127 127 127 127 128 128 128 128 132 163 196 252 249 241 253 239 240 253 253 253 252 250 252 254 250 253 246 245 250 216 144 135 136 131 133 134 132 129 135 141 129 128 129 127 126 127 157 245 252 252 252 251 250 252 252 251 191 159 142 137 135 140 144 139 135 144 148 145 149 136 129 135 147 136 129 146 142 147 134 139 146 138 155 149 176 171 233 248 252 253 253 253 253 254 252 236 252 252 252 254 254 254 254 254 255 255 255 255 255 255 255 255 
255 255 255 255 255 255 255 255 250 252 243 252 233 133 127 127 128 128 127 127 127 127 128 128 128 128 128 128 128 128 128 130 127 128 128 207 253 253 253 253 253 253 244 245 249 251 252 254 239 253 251 251 249 226 160 151 138 134 133 130 129 127 128 128 129 127 127 127 128 127 127 126 149 171 208 237 250 250 227 203 149 141 137 137 140 146 149 147 149 158 156 157 176 158 134 137 168 148 135 163 156 154 134 136 149 152 133 143 129 128 127 130 165 188 228 253 253 249 254 254 252 252 252 254 254 254 254 254 255 255 255 255 255 255 255 255 
255 255 255 255 255 255 255 255 255 255 255 255 212 128 127 128 127 127 127 128 128 128 127 127 128 129 130 130 128 128 130 134 135 130 128 175 251 244 222 188 154 149 152 170 193 210 229 249 253 252 238 251 251 243 174 157 154 141 121 128 127 119 127 113 119 130 130 121 128 129 127 127 127 128 128 128 129 137 141 138 141 146 148 145 143 141 143 150 150 154 161 157 156 155 150 157 153 138 135 154 150 139 127 120 129 143 126 132 150 131 137 141 145 136 136 156 201 239 248 247 252 252 252 254 254 254 254 254 255 255 255 255 255 255 255 255 
255 255 255 255 255 255 255 255 255 252 255 238 171 127 128 127 128 128 128 127 127 127 128 128 128 132 139 139 132 128 129 131 132 132 130 136 246 252 204 127 127 128 134 140 135 130 132 141 211 246 253 249 243 249 203 163 151 145 132 127 124 127 128 127 129 123 118 129 129 120 117 131 129 130 129 128 129 136 138 133 157 161 151 141 140 139 143 156 155 143 149 149 145 159 166 157 137 142 151 136 148 127 91 74 96 129 129 136 155 131 145 152 156 146 136 131 128 131 161 230 252 252 252 254 254 254 254 254 255 255 255 255 255 255 255 255 
255 255 255 255 255 255 255 255 247 255 255 227 128 127 128 127 128 127 127 128 128 128 127 127 128 143 142 134 132 129 128 129 129 148 135 128 186 141 129 127 128 128 133 136 136 141 140 130 150 247 248 247 249 245 247 173 157 147 134 130 122 133 115 117 122 130 135 126 115 126 130 129 129 133 129 128 138 145 136 133 143 140 157 162 148 140 139 155 155 154 152 150 155 166 174 176 144 137 143 154 137 89 63 61 62 88 129 144 148 131 137 182 169 144 146 137 129 127 132 132 176 223 254 243 254 244 253 254 254 255 255 255 255 255 255 255 
255 255 255 255 255 255 255 255 255 244 249 232 127 128 127 128 128 128 127 127 128 128 128 128 128 135 157 140 134 128 128 128 132 146 147 135 152 127 127 128 130 128 128 128 130 138 146 143 148 222 229 238 246 228 227 195 176 159 141 133 125 132 73 64 79 112 138 131 124 129 127 125 129 132 129 128 141 143 134 132 137 130 133 138 144 151 154 167 162 160 160 165 178 185 177 166 169 143 152 147 86 67 76 65 64 62 113 140 151 138 141 186 162 168 155 131 129 135 146 137 132 150 225 254 255 241 244 253 254 255 255 255 255 255 255 255 
255 255 255 255 255 255 255 255 255 249 255 255 135 128 127 128 128 128 127 127 127 128 128 128 148 144 165 156 146 138 133 135 142 150 172 174 151 127 129 133 137 131 129 130 133 137 143 151 154 149 128 127 127 127 135 163 184 186 179 159 143 122 62 56 65 62 85 134 135 131 122 126 128 130 130 130 153 146 135 133 134 130 130 133 139 150 160 174 181 174 165 165 174 186 188 183 150 156 146 89 66 82 91 65 80 59 96 142 161 151 142 162 163 171 161 149 140 137 133 132 130 129 164 230 255 254 254 252 254 255 255 255 255 255 255 255 
255 255 255 255 255 255 255 255 243 255 255 255 168 127 128 128 128 128 128 128 128 128 128 127 177 171 156 172 162 175 151 153 149 155 188 204 150 127 130 133 131 131 133 137 138 133 136 148 160 138 131 132 131 129 128 133 147 161 186 198 186 121 80 87 92 62 61 86 108 127 127 126 128 129 130 131 162 148 138 137 134 132 133 133 133 135 139 141 149 154 158 162 164 168 173 176 182 167 105 72 99 106 81 88 97 72 92 141 162 162 149 143 152 169 170 158 136 134 132 133 130 129 177 253 248 247 253 254 254 255 255 255 255 255 255 255 
255 255 255 255 255 255 255 255 255 255 255 238 213 134 128 128 128 128 128 128 128 128 128 127 158 204 168 189 183 181 164 163 156 174 190 179 138 127 130 131 133 135 137 139 136 132 136 150 154 128 129 137 138 139 133 128 126 129 140 164 175 92 89 123 121 94 84 63 56 105 130 125 128 128 129 130 154 145 143 142 143 140 139 139 136 134 133 130 129 129 129 129 131 138 151 167 181 122 75 94 138 119 92 112 99 76 88 135 157 161 155 137 159 168 182 171 133 132 136 139 132 133 189 253 238 247 254 252 254 255 255 255 255 255 255 255 
255 255 255 255 255 255 255 255 255 247 255 250 251 196 130 129 128 128 128 127 127 128 128 127 148 211 189 186 212 179 190 176 177 184 165 144 132 128 133 130 136 138 140 139 138 142 153 163 150 127 128 132 133 140 137 128 127 122 121 129 139 57 80 138 127 108 120 87 49 74 123 127 126 127 131 137 157 148 144 138 147 148 149 152 144 137 137 133 130 130 130 130 129 128 126 125 122 48 50 93 106 124 135 103 76 69 90 137 161 153 148 134 179 169 180 169 135 134 144 143 133 139 174 241 241 254 254 242 255 255 255 255 255 255 255 255 
255 255 255 255 255 255 255 255 251 235 255 255 254 249 158 133 128 129 129 128 129 129 129 129 149 183 181 173 199 175 191 168 172 157 141 132 131 129 135 129 129 131 137 137 138 155 174 166 134 128 127 129 130 130 130 127 127 127 129 128 125 45 76 136 156 136 116 93 67 40 54 126 120 126 134 140 163 157 130 136 140 142 131 153 141 138 139 135 118 134 134 126 128 127 124 128 41 52 64 80 102 124 122 102 64 56 90 145 163 150 143 153 178 178 160 134 133 158 174 142 128 148 189 252 253 245 254 246 255 255 255 255 255 255 255 255 
255 255 255 255 255 255 255 255 255 255 251 251 250 239 255 156 132 135 136 136 137 139 138 135 149 168 182 186 176 171 169 154 155 142 140 135 131 128 135 130 129 134 143 137 133 147 161 145 126 126 127 129 130 128 127 128 126 127 132 129 125 47 68 115 142 151 120 91 79 56 48 73 126 118 119 155 137 160 157 141 133 138 133 149 158 148 127 124 130 119 134 141 138 132 113 89 38 56 77 85 85 85 81 75 62 61 109 158 155 149 158 181 191 167 145 136 157 170 152 130 135 166 172 237 253 250 254 254 255 255 255 255 255 255 255 255 
255 255 255 255 255 255 255 255 255 255 255 254 251 249 248 247 157 147 142 147 145 156 157 179 162 137 165 178 167 158 159 150 140 138 138 134 130 131 135 134 129 138 157 148 149 171 148 128 126 127 130 132 131 130 129 129 128 130 132 127 127 56 62 90 123 134 134 114 96 78 52 37 90 135 135 149 148 140 149 143 136 138 139 123 146 148 145 138 116 118 130 138 124 139 118 55 66 83 107 102 84 76 73 70 69 59 95 135 153 164 163 167 155 144 138 169 184 157 132 131 157 157 138 220 253 253 245 254 255 255 255 255 255 255 255 255 
255 255 255 255 255 255 255 255 255 255 255 254 251 250 249 249 245 199 176 162 171 177 160 150 136 135 151 178 170 145 141 138 150 138 133 133 134 138 137 131 130 130 140 153 147 135 129 128 130 131 134 136 134 133 133 134 129 130 133 125 125 64 60 80 109 131 140 122 104 97 69 45 29 90 137 138 159 155 155 148 124 128 135 142 147 142 145 137 129 116 125 127 120 135 59 35 79 106 100 93 87 72 60 51 70 74 103 124 131 138 133 144 140 153 165 181 160 141 135 146 157 149 135 215 249 252 241 254 255 255 255 255 255 255 255 255 
255 255 255 255 255 255 255 255 255 254 254 254 252 252 251 251 250 237 221 156 142 136 136 134 129 158 164 163 161 171 176 151 140 139 144 152 149 143 136 131 128 128 134 145 144 132 128 129 130 131 133 134 133 133 133 134 131 134 137 127 127 79 59 70 86 106 115 103 97 98 89 75 38 56 126 157 150 150 145 123 128 110 125 117 114 122 147 139 135 131 131 111 88 61 29 42 74 100 89 91 92 75 68 56 68 93 123 126 126 129 128 135 160 172 167 156 140 139 146 170 150 141 134 221 250 245 246 254 255 255 255 255 255 255 255 255 
255 255 255 255 255 255 255 255 254 254 254 254 254 254 254 253 254 253 253 214 193 173 150 138 146 173 166 163 151 160 161 152 170 162 163 168 162 145 133 129 131 138 148 147 149 141 130 128 131 132 137 140 140 137 136 134 132 132 134 128 132 99 61 66 76 89 89 83 83 88 87 77 45 50 68 136 119 133 102 109 70 31 18 12 8 18 46 50 77 97 95 41 52 26 31 50 68 87 105 118 102 88 88 71 67 84 143 143 129 130 133 132 138 138 138 143 152 159 158 156 139 136 136 231 253 248 253 254 255 255 255 255 255 255 255 255 
255 255 255 255 255 255 255 255 252 252 254 254 254 255 255 255 250 244 247 254 253 253 202 177 189 174 163 151 141 171 184 188 198 193 183 167 146 132 128 128 138 145 155 153 150 139 130 129 129 131 136 140 140 136 133 131 131 128 129 127 132 118 66 68 69 70 75 82 87 95 92 77 76 72 48 54 56 26 25 25 38 33 22 18 14 11 17 34 41 34 23 35 60 32 41 46 60 76 96 98 83 79 79 68 72 82 132 148 138 133 139 133 128 128 129 134 145 146 140 134 135 136 139 225 252 249 254 246 255 255 255 255 255 255 255 255 
255 255 255 255 255 255 255 255 254 254 254 255 255 255 255 255 255 254 251 254 242 254 243 253 251 214 199 160 148 187 192 180 171 172 157 139 130 128 130 138 143 150 158 149 138 132 129 131 131 134 140 144 143 139 135 131 135 131 130 129 132 126 71 72 75 65 75 91 95 105 112 103 65 48 37 26 37 8 66 26 21 30 27 35 33 20 12 37 7 34 22 47 35 44 65 45 61 70 83 84 86 87 77 69 78 86 130 142 152 137 137 140 136 129 128 128 129 129 130 129 140 141 140 209 251 252 254 251 254 255 255 255 255 255 255 255 
255 255 255 255 255 255 255 255 255 255 255 255 255 255 255 255 254 246 253 255 255 254 242 241 254 230 240 252 251 243 229 238 212 175 137 129 132 143 160 180 175 170 168 145 131 129 129 130 131 134 138 140 139 136 131 129 132 133 127 135 133 122 105 59 68 88 106 103 101 106 86 60 39 42 39 22 23 26 33 20 15 53 23 44 38 16 23 33 1 1 12 18 36 34 41 69 61 70 68 69 75 71 67 71 89 90 133 133 145 141 138 145 141 131 130 129 130 130 135 133 148 143 135 192 253 254 253 253 254 255 255 255 255 255 255 255 
255 255 255 255 255 255 255 255 255 255 255 255 255 255 254 254 254 250 254 240 255 254 254 254 246 254 250 230 253 241 252 252 250 233 180 159 172 186 183 185 191 155 146 137 129 128 128 131 134 139 145 148 146 140 133 129 126 129 131 134 129 124 112 64 61 74 113 115 94 83 75 61 59 48 46 37 29 27 25 19 26 67 33 25 21 25 24 39 3 4 15 9 11 16 35 90 96 93 86 81 58 60 104 94 81 85 126 125 131 140 141 135 141 134 134 131 132 136 153 155 147 138 131 180 254 252 250 252 254 255 255 255 255 255 255 255 
255 255 255 255 255 255 255 255 255 255 255 255 255 255 255 255 255 255 255 255 255 255 255 255 253 254 253 254 254 254 253 253 249 251 252 247 230 209 193 184 175 173 145 129 128 129 129 131 128 135 138 137 144 141 133 131 122 126 128 140 131 131 119 65 68 75 109 95 95 94 76 87 71 27 17 32 48 41 29 11 18 33 17 11 14 18 27 35 5 9 31 26 22 19 16 14 42 70 106 96 65 80 81 79 99 90 121 128 125 136 135 135 146 146 133 131 130 134 133 139 131 136 131 201 253 251 253 253 254 255 255 255 255 255 255 255 
255 255 255 255 255 255 255 255 255 255 255 255 255 255 255 255 255 255 255 255 255 255 255 255 254 254 254 254 254 254 254 254 254 253 253 253 249 236 220 210 183 154 134 130 130 128 128 130 137 146 145 139 142 145 139 134 122 126 129 136 131 134 123 62 93 106 111 96 85 78 67 52 19 22 34 38 40 45 30 11 37 68 19 17 12 9 34 16 4 12 23 20 17 22 29 23 18 29 68 93 89 67 54 41 72 107 123 125 129 130 141 138 141 142 133 131 130 132 131 134 133 136 133 216 253 255 252 254 254 255 255 255 255 255 255 255 
255 255 255 255 255 255 255 255 255 255 255 255 255 255 255 255 255 255 255 255 255 255 255 255 254 254 254 254 254 254 254 254 255 252 250 253 253 253 245 235 166 144 132 130 130 130 135 153 151 157 155 143 136 138 135 131 126 126 128 133 136 138 127 60 64 103 121 116 87 71 47 23 12 34 54 41 30 43 39 26 15 52 27 27 16 18 65 20 3 12 19 30 27 23 34 37 33 19 31 73 91 59 59 66 63 117 126 131 128 126 129 129 136 139 136 134 132 132 131 132 135 134 135 236 253 255 253 254 254 255 255 255 255 255 255 255 
255 255 255 255 255 255 255 255 255 255 255 255 255 255 255 255 255 255 255 255 255 255 255 255 255 255 255 255 255 255 255 255 255 253 251 252 254 253 251 247 236 154 130 131 135 136 147 180 157 158 163 157 143 144 145 137 127 126 125 131 140 139 130 67 49 99 122 91 71 56 43 37 48 42 33 26 28 37 35 46 12 30 47 24 16 31 40 5 32 29 8 18 25 16 21 29 36 31 27 42 62 66 65 65 87 120 135 133 132 124 129 129 132 136 139 140 137 135 132 131 134 131 138 247 253 255 253 254 255 255 255 255 255 255 255 255 
255 255 255 255 255 255 255 255 255 255 255 255 255 255 255 255 255 255 255 255 255 255 255 255 255 255 255 255 255 255 255 255 254 254 254 255 254 254 253 253 250 250 191 141 140 182 207 176 187 164 160 158 145 146 149 139 128 126 123 129 136 137 135 91 74 108 134 77 59 41 37 49 59 42 34 48 40 19 14 51 34 25 56 21 24 50 38 13 72 39 3 12 37 24 20 23 25 42 32 27 54 73 59 42 110 127 133 130 137 130 130 131 131 133 138 138 136 133 132 130 133 131 150 251 251 255 253 254 255 255 255 255 255 255 255 255 
255 255 255 255 255 255 255 255 255 255 255 255 255 255 255 255 255 255 255 255 255 255 255 255 255 255 255 255 255 255 255 254 253 254 254 254 252 252 254 254 248 253 252 234 198 193 210 219 189 157 146 144 140 144 142 133 127 125 122 129 132 141 144 123 77 107 128 67 60 47 42 53 45 32 32 66 63 35 33 93 63 33 68 36 45 54 49 34 81 61 25 23 56 37 26 26 36 40 29 33 64 51 38 43 109 137 126 126 135 132 128 127 132 132 135 132 131 130 133 131 134 135 179 252 253 250 254 253 255 255 255 255 255 255 255 255 
255 255 255 255 255 255 255 255 255 255 255 255 255 255 255 255 255 255 255 255 255 255 255 255 255 255 255 255 255 255 255 254 252 252 252 254 254 255 252 251 252 247 252 252 240 232 201 164 140 141 148 155 158 162 149 133 127 130 131 136 147 159 150 143 109 124 104 54 46 26 51 47 32 20 38 61 89 75 67 132 89 61 76 60 64 67 54 60 89 90 44 49 79 35 22 17 18 32 53 38 38 49 41 17 113 141 141 127 135 127 131 130 133 131 132 130 129 129 133 132 134 142 221 251 254 247 254 252 255 255 255 255 255 255 255 255 
255 255 255 255 255 255 255 255 255 255 255 255 255 255 255 255 255 255 255 255 255 255 255 255 255 255 255 255 255 255 255 254 254 253 253 254 254 254 253 246 253 252 254 252 251 253 223 166 128 138 176 193 185 172 143 128 128 142 150 154 158 169 146 134 126 138 105 51 52 45 55 34 56 50 62 73 106 76 51 107 104 90 94 97 91 107 95 101 110 64 26 48 71 57 60 64 55 38 34 39 39 66 39 27 111 128 144 133 128 129 130 129 131 129 131 129 129 129 135 132 134 146 249 247 254 245 254 254 255 255 255 255 255 255 255 255 
255 255 255 255 255 255 255 255 255 255 255 255 255 255 255 255 255 255 255 255 255 255 255 255 255 255 255 255 255 255 255 254 254 253 253 253 254 254 254 254 254 254 254 254 254 253 254 252 225 190 182 212 227 180 136 127 136 140 146 158 170 167 146 132 109 104 121 71 59 52 56 93 115 101 132 112 104 96 88 109 112 134 118 120 134 109 121 117 120 118 83 106 98 80 84 97 93 89 39 21 36 62 35 42 98 125 139 135 132 125 130 131 127 131 131 129 129 130 132 133 131 205 247 249 254 246 255 248 255 255 255 255 255 255 255 255 
255 255 255 255 255 255 255 255 255 255 255 255 255 255 255 255 255 255 255 255 255 255 255 255 255 255 255 255 255 255 255 254 254 253 253 253 254 254 254 254 254 254 254 254 254 254 254 253 251 244 229 211 179 151 145 149 166 202 202 188 184 153 134 136 141 81 102 97 58 66 95 151 107 54 40 30 50 100 159 162 108 75 81 89 100 94 96 87 119 152 142 99 42 22 32 62 66 52 53 33 44 59 51 50 85 128 139 141 137 135 132 132 128 133 131 128 128 131 134 135 138 217 250 251 254 248 255 252 255 255 255 255 255 255 255 255 
255 255 255 255 255 255 255 255 255 255 255 255 255 255 255 255 255 255 255 255 255 255 255 255 255 255 255 255 255 255 255 254 254 254 254 254 254 254 254 254 255 255 254 254 254 254 254 253 242 250 251 230 184 163 180 219 234 240 216 198 189 157 137 137 137 72 107 110 56 86 79 62 26 27 41 65 98 84 72 109 119 54 53 45 59 61 48 65 103 121 64 75 105 64 40 35 39 75 76 28 5 14 74 35 62 126 137 138 131 131 129 129 132 133 129 129 132 133 133 141 161 235 252 254 254 250 255 255 255 255 255 255 255 255 255 255 
255 255 255 255 255 255 255 255 255 255 255 255 255 255 255 255 255 255 255 255 255 255 255 255 255 255 255 255 255 255 255 255 254 254 254 254 254 254 254 254 255 255 254 254 254 254 254 254 247 251 253 253 233 207 203 212 199 184 209 224 184 166 166 156 143 98 107 61 64 87 65 76 32 32 64 89 89 65 52 69 152 105 91 52 54 51 54 109 167 85 49 52 58 76 78 47 25 109 110 106 64 9 12 40 51 129 147 138 132 130 128 129 132 131 128 129 133 133 132 140 198 251 253 254 254 250 255 255 255 255 255 255 255 255 255 255 
255 255 255 255 255 255 255 255 255 255 255 255 255 255 255 255 255 255 255 255 255 255 255 255 255 255 255 255 255 255 255 255 254 254 254 255 255 255 255 255 254 254 254 254 254 254 254 254 255 255 247 253 254 246 226 215 178 166 196 237 219 199 188 167 152 89 91 69 70 93 89 121 105 97 143 95 50 52 69 48 128 127 107 77 62 56 89 102 142 61 59 73 49 66 129 119 70 113 86 87 100 59 11 37 47 122 144 131 133 132 131 131 129 131 130 129 131 133 137 154 233 253 253 253 254 250 250 255 255 255 255 255 255 255 255 255 
255 255 255 255 255 255 255 255 255 255 255 255 255 255 255 255 255 255 255 255 255 255 255 255 255 255 255 255 255 255 255 255 255 255 255 255 255 255 255 255 254 254 254 254 254 254 254 255 251 248 247 249 254 254 253 252 230 218 197 211 244 212 168 161 161 83 89 72 65 88 82 109 134 104 153 133 84 126 72 44 120 145 113 81 45 40 122 124 151 71 62 79 98 99 119 114 171 104 69 63 40 89 64 44 40 100 125 120 135 131 126 127 130 129 130 133 131 130 147 209 250 253 253 253 254 251 249 255 255 255 255 255 255 255 255 255 
255 255 255 255 255 255 255 255 255 255 255 255 255 255 255 255 255 255 255 255 255 255 255 255 255 255 255 255 255 255 255 255 254 254 254 254 254 254 254 254 254 254 254 254 253 253 253 255 251 253 253 253 252 250 252 252 252 250 245 223 226 191 172 194 188 107 66 70 45 52 79 38 104 140 89 73 93 71 35 37 79 144 101 37 28 28 55 123 113 44 25 29 40 66 81 153 100 85 71 61 60 103 84 27 46 62 86 114 138 132 130 121 121 126 126 123 130 133 167 247 252 251 254 253 254 254 249 254 255 255 255 255 255 255 255 255 
255 255 255 255 255 255 255 255 255 255 255 255 255 255 255 255 255 255 255 255 255 255 255 255 255 255 255 255 255 255 255 255 254 254 254 254 254 254 254 254 254 254 254 254 254 254 253 255 252 253 250 249 254 254 254 249 249 249 251 252 248 235 228 228 195 96 26 45 63 28 37 37 57 96 110 111 78 68 68 78 73 87 47 37 61 51 38 45 78 75 75 116 126 110 90 98 85 74 83 85 90 107 69 55 41 51 47 56 65 81 108 128 117 128 134 132 133 159 229 250 250 247 254 253 253 255 252 254 255 255 255 255 255 255 255 255 
255 255 255 255 255 255 255 255 255 255 255 255 255 255 255 255 255 255 255 255 255 255 255 255 255 255 255 255 255 255 255 255 255 255 255 255 255 255 255 255 255 255 255 255 255 255 254 255 254 254 254 254 255 254 254 254 254 252 251 252 253 252 249 243 204 57 47 76 87 54 49 82 81 89 69 58 71 107 101 58 48 27 44 79 84 81 61 30 31 41 66 86 55 30 43 60 80 68 35 59 68 78 71 57 38 51 46 29 24 32 54 81 126 133 129 128 152 218 247 245 253 254 254 255 254 254 254 254 255 255 255 255 255 255 255 255 
255 255 255 255 255 255 255 255 255 255 255 255 255 255 255 255 255 255 255 255 255 255 255 255 255 255 255 255 255 255 255 255 255 255 255 255 255 255 255 255 255 255 255 255 255 255 255 255 255 255 255 255 255 255 255 255 255 253 250 253 254 254 249 242 249 43 62 73 93 99 45 43 59 57 73 68 54 70 78 56 30 19 34 67 84 81 49 21 15 30 68 79 56 49 55 61 66 62 64 100 87 77 49 77 42 49 40 24 18 17 20 28 82 111 128 140 194 249 251 252 253 254 254 255 254 254 253 254 255 255 255 255 255 255 255 255 
255 255 255 255 255 255 255 255 255 255 255 255 255 255 255 255 255 255 255 255 255 255 255 255 255 255 255 255 255 255 255 255 255 255 255 255 255 255 255 255 255 255 255 255 255 255 255 255 255 255 255 255 255 255 255 255 255 253 250 253 255 254 248 242 241 63 101 137 129 89 138 107 85 53 63 67 60 73 66 59 19 20 33 56 86 82 39 21 17 28 74 74 60 70 60 57 70 102 114 79 39 54 26 69 52 49 31 16 13 14 16 19 25 56 119 197 249 247 235 250 253 254 254 255 254 254 254 254 255 255 255 255 255 255 255 255 
255 255 255 255 255 255 255 255 255 255 255 255 255 255 255 255 255 255 255 255 255 255 255 255 255 255 255 255 255 255 255 255 255 255 255 255 255 255 255 255 255 255 255 255 255 255 255 255 255 255 255 255 255 255 255 255 255 253 250 253 255 254 248 242 241 63 101 137 129 89 138 107 85 53 63 67 60 73 66 59 19 20 33 56 86 82 39 21 17 28 74 74 60 70 60 57 70 102 114 79 39 54 26 69 52 49 31 16 13 14 16 19 25 56 119 197 249 247 235 250 253 254 254 255 254 254 254 254 255 255 255 255 255 255 255 255 
255 255 255 255 255 255 255 255 255 255 255 255 255 255 255 255 255 255 255 255 255 255 255 255 255 255 255 255 255 255 255 255 255 255 255 255 255 255 255 255 255 255 255 255 255 255 255 255 255 255 255 255 255 255 255 255 255 253 250 253 254 254 249 242 249 43 62 73 93 99 45 43 59 57 73 68 54 70 78 56 30 19 34 67 84 81 49 21 15 30 68 79 56 49 55 61 66 62 64 100 87 77 49 77 42 49 40 24 18 17 20 28 82 111 128 140 194 249 251 252 253 254 254 255 254 254 253 254 255 255 255 255 255 255 255 255 
255 255 255 255 255 255 255 255 255 255 255 255 255 255 255 255 255 255 255 255 255 255 255 255 255 255 255 255 255 255 255 255 255 255 255 255 255 255 255 255 255 255 255 255 255 255 254 255 254 254 254 254 255 254 254 254 254 252 251 252 253 252 249 243 204 57 47 76 87 54 49 82 81 89 69 58 71 107 101 58 48 27 44 79 84 81 61 30 31 41 66 86 55 30 43 60 80 68 35 59 68 78 71 57 38 51 46 29 24 32 54 81 126 133 129 128 152 218 247 245 253 254 254 255 254 254 254 254 255 255 255 255 255 255 255 255 
255 255 255 255 255 255 255 255 255 255 255 255 255 255 255 255 255 255 255 255 255 255 255 255 255 255 255 255 255 255 255 255 254 254 254 254 254 254 254 254 254 254 254 254 254 254 253 255 252 253 250 249 254 254 254 249 249 249 251 252 248 235 228 228 195 96 26 45 63 28 37 37 57 96 110 111 78 68 68 78 73 87 47 37 61 51 38 45 78 75 75 116 126 110 90 98 85 74 83 85 90 107 69 55 41 51 47 56 65 81 108 128 117 128 134 132 133 159 229 250 250 247 254 253 253 255 252 254 255 255 255 255 255 255 255 255 
255 255 255 255 255 255 255 255 255 255 255 255 255 255 255 255 255 255 255 255 255 255 255 255 255 255 255 255 255 255 255 255 254 254 254 254 254 254 254 254 254 254 254 254 253 253 253 255 251 253 253 253 252 250 252 252 252 250 245 223 226 191 172 194 188 107 66 70 45 52 79 38 104 140 89 73 93 71 35 37 79 144 101 37 28 28 55 123 113 44 25 29 40 66 81 153 100 85 71 61 60 103 84 27 46 62 86 114 138 132 130 121 121 126 126 123 130 133 167 247 252 251 254 253 254 254 249 254 255 255 255 255 255 255 255 255 
255 255 255 255 255 255 255 255 255 255 255 255 255 255 255 255 255 255 255 255 255 255 255 255 255 255 255 255 255 255 255 255 255 255 255 255 255 255 255 255 254 254 254 254 254 254 254 255 251 248 247 249 254 254 253 252 230 218 197 211 244 212 168 161 161 83 89 72 65 88 82 109 134 104 153 133 84 126 72 44 120 145 113 81 45 40 122 124 151 71 62 79 98 99 119 114 171 104 69 63 40 89 64 44 40 100 125 120 135 131 126 127 130 129 130 133 131 130 147 209 250 253 253 253 254 251 249 255 255 255 255 255 255 255 255 255 
255 255 255 255 255 255 255 255 255 255 255 255 255 255 255 255 255 255 255 255 255 255 255 255 255 255 255 255 255 255 255 255 254 254 254 255 255 255 255 255 254 254 254 254 254 254 254 254 255 255 247 253 254 246 226 215 178 166 196 237 219 199 188 167 152 89 91 69 70 93 89 121 105 97 143 95 50 52 69 48 128 127 107 77 62 56 89 102 142 61 59 73 49 66 129 119 70 113 86 87 100 59 11 37 47 122 144 131 133 132 131 131 129 131 130 129 131 133 137 154 233 253 253 253 254 250 250 255 255 255 255 255 255 255 255 255 
255 255 255 255 255 255 255 255 255 255 255 255 255 255 255 255 255 255 255 255 255 255 255 255 255 255 255 255 255 255 255 255 254 254 254 254 254 254 254 254 255 255 254 254 254 254 254 254 247 251 253 253 233 207 203 212 199 184 209 224 184 166 166 156 143 98 107 61 64 87 65 76 32 32 64 89 89 65 52 69 152 105 91 52 54 51 54 109 167 85 49 52 58 76 78 47 25 109 110 106 64 9 12 40 51 129 147 138 132 130 128 129 132 131 128 129 133 133 132 140 198 251 253 254 254 250 255 255 255 255 255 255 255 255 255 255 
255 255 255 255 255 255 255 255 255 255 255 255 255 255 255 255 255 255 255 255 255 255 255 255 255 255 255 255 255 255 255 254 254 254 254 254 254 254 254 254 255 255 254 254 254 254 254 253 242 250 251 230 184 163 180 219 234 240 216 198 189 157 137 137 137 72 107 110 56 86 79 62 26 27 41 65 98 84 72 109 119 54 53 45 59 61 48 65 103 121 64 75 105 64 40 35 39 75 76 28 5 14 74 35 62 126 137 138 131 131 129 129 132 133 129 129 132 133 133 141 161 235 252 254 254 250 255 255 255 255 255 255 255 255 255 255 
255 255 255 255 255 255 255 255 255 255 255 255 255 255 255 255 255 255 255 255 255 255 255 255 255 255 255 255 255 255 255 254 254 253 253 253 254 254 254 254 254 254 254 254 254 254 254 253 251 244 229 211 179 151 145 149 166 202 202 188 184 153 134 136 141 81 102 97 58 66 95 151 107 54 40 30 50 100 159 162 108 75 81 89 100 94 96 87 119 152 142 99 42 22 32 62 66 52 53 33 44 59 51 50 85 128 139 141 137 135 132 132 128 133 131 128 128 131 134 135 138 217 250 251 254 248 255 252 255 255 255 255 255 255 255 255 
255 255 255 255 255 255 255 255 255 255 255 255 255 255 255 255 255 255 255 255 255 255 255 255 255 255 255 255 255 255 255 254 254 253 253 253 254 254 254 254 254 254 254 254 254 253 254 252 225 190 182 212 227 180 136 127 136 140 146 158 170 167 146 132 109 104 121 71 59 52 56 93 115 101 132 112 104 96 88 109 112 134 118 120 134 109 121 117 120 118 83 106 98 80 84 97 93 89 39 21 36 62 35 42 98 125 139 135 132 125 130 131 127 131 131 129 129 130 132 133 131 205 247 249 254 246 255 248 255 255 255 255 255 255 255 255 
255 255 255 255 255 255 255 255 255 255 255 255 255 255 255 255 255 255 255 255 255 255 255 255 255 255 255 255 255 255 255 254 254 253 253 254 254 254 253 246 253 252 254 252 251 253 223 166 128 138 176 193 185 172 143 128 128 142 150 154 158 169 146 134 126 138 105 51 52 45 55 34 56 50 62 73 106 76 51 107 104 90 94 97 91 107 95 101 110 64 26 48 71 57 60 64 55 38 34 39 39 66 39 27 111 128 144 133 128 129 130 129 131 129 131 129 129 129 135 132 134 146 249 247 254 245 254 254 255 255 255 255 255 255 255 255 
255 255 255 255 255 255 255 255 255 255 255 255 255 255 255 255 255 255 255 255 255 255 255 255 255 255 255 255 255 255 255 254 252 252 252 254 254 255 252 251 252 247 252 252 240 232 201 164 140 141 148 155 158 162 149 133 127 130 131 136 147 159 150 143 109 124 104 54 46 26 51 47 32 20 38 61 89 75 67 132 89 61 76 60 64 67 54 60 89 90 44 49 79 35 22 17 18 32 53 38 38 49 41 17 113 141 141 127 135 127 131 130 133 131 132 130 129 129 133 132 134 142 221 251 254 247 254 252 255 255 255 255 255 255 255 255 
255 255 255 255 255 255 255 255 255 255 255 255 255 255 255 255 255 255 255 255 255 255 255 255 255 255 255 255 255 255 255 254 253 254 254 254 252 252 254 254 248 253 252 234 198 193 210 219 189 157 146 144 140 144 142 133 127 125 122 129 132 141 144 123 77 107 128 67 60 47 42 53 45 32 32 66 63 35 33 93 63 33 68 36 45 54 49 34 81 61 25 23 56 37 26 26 36 40 29 33 64 51 38 43 109 137 126 126 135 132 128 127 132 132 135 132 131 130 133 131 134 135 179 252 253 250 254 253 255 255 255 255 255 255 255 255 
255 255 255 255 255 255 255 255 255 255 255 255 255 255 255 255 255 255 255 255 255 255 255 255 255 255 255 255 255 255 255 255 254 254 254 255 254 254 253 253 250 250 191 141 140 182 207 176 187 164 160 158 145 146 149 139 128 126 123 129 136 137 135 91 74 108 134 77 59 41 37 49 59 42 34 48 40 19 14 51 34 25 56 21 24 50 38 13 72 39 3 12 37 24 20 23 25 42 32 27 54 73 59 42 110 127 133 130 137 130 130 131 131 133 138 138 136 133 132 130 133 131 150 251 251 255 253 254 255 255 255 255 255 255 255 255 
255 255 255 255 255 255 255 255 255 255 255 255 255 255 255 255 255 255 255 255 255 255 255 255 255 255 255 255 255 255 255 255 255 253 251 252 254 253 251 247 236 154 130 131 135 136 147 180 157 158 163 157 143 144 145 137 127 126 125 131 140 139 130 67 49 99 122 91 71 56 43 37 48 42 33 26 28 37 35 46 12 30 47 24 16 31 40 5 32 29 8 18 25 16 21 29 36 31 27 42 62 66 65 65 87 120 135 133 132 124 129 129 132 136 139 140 137 135 132 131 134 131 138 247 253 255 253 254 255 255 255 255 255 255 255 255 
255 255 255 255 255 255 255 255 255 255 255 255 255 255 255 255 255 255 255 255 255 255 255 255 254 254 254 254 254 254 254 254 255 252 250 253 253 253 245 235 166 144 132 130 130 130 135 153 151 157 155 143 136 138 135 131 126 126 128 133 136 138 127 60 64 103 121 116 87 71 47 23 12 34 54 41 30 43 39 26 15 52 27 27 16 18 65 20 3 12 19 30 27 23 34 37 33 19 31 73 91 59 59 66 63 117 126 131 128 126 129 129 136 139 136 134 132 132 131 132 135 134 135 236 253 255 253 254 254 255 255 255 255 255 255 255 
255 255 255 255 255 255 255 255 255 255 255 255 255 255 255 255 255 255 255 255 255 255 255 255 254 254 254 254 254 254 254 254 254 253 253 253 249 236 220 210 183 154 134 130 130 128 128 130 137 146 145 139 142 145 139 134 122 126 129 136 131 134 123 62 93 106 111 96 85 78 67 52 19 22 34 38 40 45 30 11 37 68 19 17 12 9 34 16 4 12 23 20 17 22 29 23 18 29 68 93 89 67 54 41 72 107 123 125 129 130 141 138 141 142 133 131 130 132 131 134 133 136 133 216 253 255 252 254 254 255 255 255 255 255 255 255 
255 255 255 255 255 255 255 255 255 255 255 255 255 255 255 255 255 255 255 255 255 255 255 255 253 254 253 254 254 254 253 253 249 251 252 247 230 209 193 184 175 173 145 129 128 129 129 131 128 135 138 137 144 141 133 131 122 126 128 140 131 131 119 65 68 75 109 95 95 94 76 87 71 27 17 32 48 41 29 11 18 33 17 11 14 18 27 35 5 9 31 26 22 19 16 14 42 70 106 96 65 80 81 79 99 90 121 128 125 136 135 135 146 146 133 131 130 134 133 139 131 136 131 201 253 251 253 253 254 255 255 255 255 255 255 255 
255 255 255 255 255 255 255 255 255 255 255 255 255 255 254 254 254 250 254 240 255 254 254 254 246 254 250 230 253 241 252 252 250 233 180 159 172 186 183 185 191 155 146 137 129 128 128 131 134 139 145 148 146 140 133 129 126 129 131 134 129 124 112 64 61 74 113 115 94 83 75 61 59 48 46 37 29 27 25 19 26 67 33 25 21 25 24 39 3 4 15 9 11 16 35 90 96 93 86 81 58 60 104 94 81 85 126 125 131 140 141 135 141 134 134 131 132 136 153 155 147 138 131 180 254 252 250 252 254 255 255 255 255 255 255 255 
255 255 255 255 255 255 255 255 255 255 255 255 255 255 255 255 254 246 253 255 255 254 242 241 254 230 240 252 251 243 229 238 212 175 137 129 132 143 160 180 175 170 168 145 131 129 129 130 131 134 138 140 139 136 131 129 132 133 127 135 133 122 105 59 68 88 106 103 101 106 86 60 39 42 39 22 23 26 33 20 15 53 23 44 38 16 23 33 1 1 12 18 36 34 41 69 61 70 68 69 75 71 67 71 89 90 133 133 145 141 138 145 141 131 130 129 130 130 135 133 148 143 135 192 253 254 253 253 254 255 255 255 255 255 255 255 
255 255 255 255 255 255 255 255 254 254 254 255 255 255 255 255 255 254 251 254 242 254 243 253 251 214 199 160 148 187 192 180 171 172 157 139 130 128 130 138 143 150 158 149 138 132 129 131 131 134 140 144 143 139 135 131 135 131 130 129 132 126 71 72 75 65 75 91 95 105 112 103 65 48 37 26 37 8 66 26 21 30 27 35 33 20 12 37 7 34 22 47 35 44 65 45 61 70 83 84 86 87 77 69 78 86 130 142 152 137 137 140 136 129 128 128 129 129 130 129 140 141 140 209 251 252 254 251 254 255 255 255 255 255 255 255 
255 255 255 255 255 255 255 255 252 252 254 254 254 255 255 255 250 244 247 254 253 253 202 177 189 174 163 151 141 171 184 188 198 193 183 167 146 132 128 128 138 145 155 153 150 139 130 129 129 131 136 140 140 136 133 131 131 128 129 127 132 118 66 68 69 70 75 82 87 95 92 77 76 72 48 54 56 26 25 25 38 33 22 18 14 11 17 34 41 34 23 35 60 32 41 46 60 76 96 98 83 79 79 68 72 82 132 148 138 133 139 133 128 128 129 134 145 146 140 134 135 136 139 225 252 249 254 246 255 255 255 255 255 255 255 255 
255 255 255 255 255 255 255 255 254 254 254 254 254 254 254 253 254 253 253 214 193 173 150 138 146 173 166 163 151 160 161 152 170 162 163 168 162 145 133 129 131 138 148 147 149 141 130 128 131 132 137 140 140 137 136 134 132 132 134 128 132 99 61 66 76 89 89 83 83 88 87 77 45 50 68 136 119 133 102 109 70 31 18 12 8 18 46 50 77 97 95 41 52 26 31 50 68 87 105 118 102 88 88 71 67 84 143 143 129 130 133 132 138 138 138 143 152 159 158 156 139 136 136 231 253 248 253 254 255 255 255 255 255 255 255 255 
255 255 255 255 255 255 255 255 255 254 254 254 252 252 251 251 250 237 221 156 142 136 136 134 129 158 164 163 161 171 176 151 140 139 144 152 149 143 136 131 128 128 134 145 144 132 128 129 130 131 133 134 133 133 133 134 131 134 137 127 127 79 59 70 86 106 115 103 97 98 89 75 38 56 126 157 150 150 145 123 128 110 125 117 114 122 147 139 135 131 131 111 88 61 29 42 74 100 89 91 92 75 68 56 68 93 123 126 126 129 128 135 160 172 167 156 140 139 146 170 150 141 134 221 250 245 246 254 255 255 255 255 255 255 255 255 
255 255 255 255 255 255 255 255 255 255 255 254 251 250 249 249 245 199 176 162 171 177 160 150 136 135 151 178 170 145 141 138 150 138 133 133 134 138 137 131 130 130 140 153 147 135 129 128 130 131 134 136 134 133 133 134 129 130 133 125 125 64 60 80 109 131 140 122 104 97 69 45 29 90 137 138 159 155 155 148 124 128 135 142 147 142 145 137 129 116 125 127 120 135 59 35 79 106 100 93 87 72 60 51 70 74 103 124 131 138 133 144 140 153 165 181 160 141 135 146 157 149 135 215 249 252 241 254 255 255 255 255 255 255 255 255 
255 255 255 255 255 255 255 255 255 255 255 254 251 249 248 247 157 147 142 147 145 156 157 179 162 137 165 178 167 158 159 150 140 138 138 134 130 131 135 134 129 138 157 148 149 171 148 128 126 127 130 132 131 130 129 129 128 130 132 127 127 56 62 90 123 134 134 114 96 78 52 37 90 135 135 149 148 140 149 143 136 138 139 123 146 148 145 138 116 118 130 138 124 139 118 55 66 83 107 102 84 76 73 70 69 59 95 135 153 164 163 167 155 144 138 169 184 157 132 131 157 157 138 220 253 253 245 254 255 255 255 255 255 255 255 255 
255 255 255 255 255 255 255 255 255 255 251 251 250 239 255 156 132 135 136 136 137 139 138 135 149 168 182 186 176 171 169 154 155 142 140 135 131 128 135 130 129 134 143 137 133 147 161 145 126 126 127 129 130 128 127 128 126 127 132 129 125 47 68 115 142 151 120 91 79 56 48 73 126 118 119 155 137 160 157 141 133 138 133 149 158 148 127 124 130 119 134 141 138 132 113 89 38 56 77 85 85 85 81 75 62 61 109 158 155 149 158 181 191 167 145 136 157 170 152 130 135 166 172 237 253 250 254 254 255 255 255 255 255 255 255 255 
255 255 255 255 255 255 255 255 251 235 255 255 254 249 158 133 128 129 129 128 129 129 129 129 149 183 181 173 199 175 191 168 172 157 141 132 131 129 135 129 129 131 137 137 138 155 174 166 134 128 127 129 130 130 130 127 127 127 129 128 125 45 76 136 156 136 116 93 67 40 54 126 120 126 134 140 163 157 130 136 140 142 131 153 141 138 139 135 118 134 134 126 128 127 124 128 41 52 64 80 102 124 122 102 64 56 90 145 163 150 143 153 178 178 160 134 133 158 174 142 128 148 189 252 253 245 254 246 255 255 255 255 255 255 255 255 
255 255 255 255 255 255 255 255 255 247 255 250 251 196 130 129 128 128 128 127 127 128 128 127 148 211 189 186 212 179 190 176 177 184 165 144 132 128 133 130 136 138 140 139 138 142 153 163 150 127 128 132 133 140 137 128 127 122 121 129 139 57 80 138 127 108 120 87 49 74 123 127 126 127 131 137 157 148 144 138 147 148 149 152 144 137 137 133 130 130 130 130 129 128 126 125 122 48 50 93 106 124 135 103 76 69 90 137 161 153 148 134 179 169 180 169 135 134 144 143 133 139 174 241 241 254 254 242 255 255 255 255 255 255 255 255 
255 255 255 255 255 255 255 255 255 255 255 238 213 134 128 128 128 128 128 128 128 128 128 127 158 204 168 189 183 181 164 163 156 174 190 179 138 127 130 131 133 135 137 139 136 132 136 150 154 128 129 137 138 139 133 128 126 129 140 164 175 92 89 123 121 94 84 63 56 105 130 125 128 128 129 130 154 145 143 142 143 140 139 139 136 134 133 130 129 129 129 129 131 138 151 167 181 122 75 94 138 119 92 112 99 76 88 135 157 161 155 137 159 168 182 171 133 132 136 139 132 133 189 253 238 247 254 252 254 255 255 255 255 255 255 255 
255 255 255 255 255 255 255 255 243 255 255 255 168 127 128 128 128 128 128 128 128 128 128 127 177 171 156 172 162 175 151 153 149 155 188 204 150 127 130 133 131 131 133 137 138 133 136 148 160 138 131 132 131 129 128 133 147 161 186 198 186 121 80 87 92 62 61 86 108 127 127 126 128 129 130 131 162 148 138 137 134 132 133 133 133 135 139 141 149 154 158 162 164 168 173 176 182 167 105 72 99 106 81 88 97 72 92 141 162 162 149 143 152 169 170 158 136 134 132 133 130 129 177 253 248 247 253 254 254 255 255 255 255 255 255 255 
255 255 255 255 255 255 255 255 255 249 255 255 135 128 127 128 128 128 127 127 127 128 128 128 148 144 165 156 146 138 133 135 142 150 172 174 151 127 129 133 137 131 129 130 133 137 143 151 154 149 128 127 127 127 135 163 184 186 179 159 143 122 62 56 65 62 85 134 135 131 122 126 128 130 130 130 153 146 135 133 134 130 130 133 139 150 160 174 181 174 165 165 174 186 188 183 150 156 146 89 66 82 91 65 80 59 96 142 161 151 142 162 163 171 161 149 140 137 133 132 130 129 164 230 255 254 254 252 254 255 255 255 255 255 255 255 
255 255 255 255 255 255 255 255 255 244 249 232 127 128 127 128 128 128 127 127 128 128 128 128 128 135 157 140 134 128 128 128 132 146 147 135 152 127 127 128 130 128 128 128 130 138 146 143 148 222 229 238 246 228 227 195 176 159 141 133 125 132 73 64 79 112 138 131 124 129 127 125 129 132 129 128 141 143 134 132 137 130 133 138 144 151 154 167 162 160 160 165 178 185 177 166 169 143 152 147 86 67 76 65 64 62 113 140 151 138 141 186 162 168 155 131 129 135 146 137 132 150 225 254 255 241 244 253 254 255 255 255 255 255 255 255 
255 255 255 255 255 255 255 255 247 255 255 227 128 127 128 127 128 127 127 128 128 128 127 127 128 143 142 134 132 129 128 129 129 148 135 128 186 141 129 127 128 128 133 136 136 141 140 130 150 247 248 247 249 245 247 173 157 147 134 130 122 133 115 117 122 130 135 126 115 126 130 129 129 133 129 128 138 145 136 133 143 140 157 162 148 140 139 155 155 154 152 150 155 166 174 176 144 137 143 154 137 89 63 61 62 88 129 144 148 131 137 182 169 144 146 137 129 127 132 132 176 223 254 243 254 244 253 254 254 255 255 255 255 255 255 255 
255 255 255 255 255 255 255 255 255 252 255 238 171 127 128 127 128 128 128 127 127 127 128 128 128 132 139 139 132 128 129 131 132 132 130 136 246 252 204 127 127 128 134 140 135 130 132 141 211 246 253 249 243 249 203 163 151 145 132 127 124 127 128 127 129 123 118 129 129 120 117 131 129 130 129 128 129 136 138 133 157 161 151 141 140 139 143 156 155 143 149 149 145 159 166 157 137 142 151 136 148 127 91 74 96 129 129 136 155 131 145 152 156 146 136 131 128 131 161 230 252 252 252 254 254 254 254 254 255 255 255 255 255 255 255 255 
255 255 255 255 255 255 255 255 255 255 255 255 212 128 127 128 127 127 127 128 128 128 127 127 128 129 130 130 128 128 130 134 135 130 128 175 251 244 222 188 154 149 152 170 193 210 229 249 253 252 238 251 251 243 174 157 154 141 121 128 127 119 127 113 119 130 130 121 128 129 127 127 127 128 128 128 129 137 141 138 141 146 148 145 143 141 143 150 150 154 161 157 156 155 150 157 153 138 135 154 150 139 127 120 129 143 126 132 150 131 137 141 145 136 136 156 201 239 248 247 252 252 252 254 254 254 254 254 255 255 255 255 255 255 255 255 
255 255 255 255 255 255 255 255 250 252 243 252 233 133 127 127 128 128 127 127 127 127 128 128 128 128 128 128 128 128 128 130 127 128 128 207 253 253 253 253 253 253 244 245 249 251 252 254 239 253 251 251 249 226 160 151 138 134 133 130 129 127 128 128 129 127 127 127 128 127 127 126 149 171 208 237 250 250 227 203 149 141 137 137 140 146 149 147 149 158 156 157 176 158 134 137 168 148 135 163 156 154 134 136 149 152 133 143 129 128 127 130 165 188 228 253 253 249 254 254 252 252 252 254 254 254 254 254 255 255 255 255 255 255 255 255 
255 255 255 255 255 255 255 255 250 255 255 255 255 163 131 127 127 127 127 127 128 127 127 127 127 127 127 127 128 128 128 128 132 163 196 252 249 241 253 239 240 253 253 253 252 250 252 254 250 253 246 245 250 216 144 135 136 131 133 134 132 129 135 141 129 128 129 127 126 127 157 245 252 252 252 251 250 252 252 251 191 159 142 137 135 140 144 139 135 144 148 145 149 136 129 135 147 136 129 146 142 147 134 139 146 138 155 149 176 171 233 248 252 253 253 253 253 254 252 236 252 252 252 254 254 254 254 254 255 255 255 255 255 255 255 255 
255 255 255 255 255 255 255 255 255 247 237 230 248 248 243 199 154 147 139 136 137 145 159 171 210 208 205 203 205 214 224 229 245 254 252 251 254 250 254 237 254 254 251 245 249 254 252 242 254 254 246 254 247 182 135 139 140 131 136 145 143 131 130 130 128 126 126 127 151 228 252 249 249 249 251 254 254 248 241 239 251 250 246 232 206 206 221 219 227 197 185 191 218 223 200 206 213 204 192 217 210 219 211 228 253 234 252 253 230 253 246 253 243 253 253 253 246 251 254 254 252 252 252 254 254 255 254 254 255 255 255 255 255 255 255 255 
255 255 255 255 255 255 255 255 255 249 255 255 255 255 255 237 240 243 246 250 253 255 254 254 254 255 253 247 248 255 254 255 246 254 251 254 248 235 254 254 254 249 245 247 254 254 254 255 236 254 254 253 244 191 139 135 141 133 136 139 136 127 127 127 132 146 186 229 251 252 253 250 253 253 253 254 254 254 254 253 232 237 250 253 248 249 253 253 252 234 250 251 238 246 251 253 250 252 253 253 248 248 254 254 254 231 254 253 252 253 251 243 254 254 251 248 253 254 254 247 252 252 252 254 254 255 254 254 255 255 255 255 255 255 255 255 
255 255 255 255 255 255 255 255 252 249 249 247 245 243 244 255 255 254 255 254 255 254 251 252 250 254 255 254 252 254 251 245 247 248 236 254 255 254 254 234 252 254 255 254 254 243 238 240 254 254 246 242 253 252 166 136 133 133 137 138 148 155 195 247 253 243 246 253 253 243 239 253 252 253 253 254 254 255 254 249 255 255 251 252 254 255 250 247 254 248 254 255 254 255 249 239 247 254 254 253 241 243 245 252 253 249 240 253 232 253 246 254 255 254 253 252 251 251 254 255 252 252 252 254 254 255 255 255 255 255 255 255 255 255 255 255 
255 255 255 255 255 255 255 255 252 255 251 239 255 255 239 255 254 254 252 251 252 254 254 254 254 254 254 248 249 254 254 251 254 253 254 244 254 243 254 254 254 249 248 254 254 254 254 254 242 248 253 253 242 253 241 249 228 251 252 242 253 251 251 252 252 253 253 246 245 254 254 254 251 254 255 253 251 253 254 254 248 254 254 249 254 254 249 254 244 254 254 244 247 252 243 255 253 253 244 254 253 254 250 253 253 246 253 249 253 243 253 254 254 250 251 255 254 250 251 255 252 252 252 254 254 255 255 255 255 255 255 255 255 255 255 255 
255 255 255 255 255 255 255 255 255 255 255 255 255 255 255 255 254 254 254 254 254 254 254 254 254 254 254 254 254 254 254 254 254 254 254 254 254 254 254 254 254 254 254 254 254 254 254 254 254 253 252 252 253 252 250 250 252 251 251 251 251 250 251 253 254 253 252 253 253 254 254 254 254 254 254 254 254 254 253 254 254 255 255 255 255 255 255 255 255 255 255 255 255 255 255 255 254 253 253 254 252 253 252 253 253 253 254 254 254 254 254 254 254 254 255 254 255 255 255 255 255 255 255 255 255 255 255 255 255 255 255 255 255 255 255 255 
255 255 255 255 255 255 255 255 255 255 255 255 255 255 255 255 254 254 254 254 254 254 254 254 254 254 254 254 254 254 254 254 254 254 254 254 254 254 254 254 254 254 254 254 254 254 254 254 254 253 252 252 253 253 251 250 252 252 251 251 250 250 250 252 254 252 252 252 253 253 254 254 254 254 254 254 254 254 253 253 255 254 254 254 254 254 254 254 254 254 254 254 254 254 254 255 253 253 253 253 252 252 252 252 253 253 254 254 254 254 253 254 254 254 254 254 254 254 255 255 255 255 255 255 255 255 255 255 255 255 255 255 255 255 255 255 
