P2
136 90
255
0 0 0 0 0 0 0 0 0 0 0 0 0 0 0 0 0 0 0 0 0 0 0 0 0 0 0 0 0 0 0 0 0 0 0 0 0 0 0 0 0 0 0 0 0 0 0 0 0 0 0 0 0 0 0 0 0 0 0 0 1 1 1 0 0 1 2 2 2 2 1 0 0 1 1 1 0 0 0 0 0 0 0 0 0 0 0 0 0 0 0 0 0 0 0 0 0 0 0 0 0 0 0 0 0 0 0 0 0 0 0 0 0 0 0 0 0 0 0 0 0 0 0 0 0 0 0 0 0 0 0 0 0 0 0 0 
0 0 0 0 0 0 0 0 0 0 0 0 0 0 0 0 0 0 0 0 0 0 0 0 0 0 0 0 0 0 0 0 0 0 0 0 0 0 0 0 0 0 0 0 0 0 0 0 0 0 0 0 0 0 0 0 0 0 0 0 0 1 1 0 0 1 1 2 2 1 1 0 0 1 1 0 0 0 0 0 0 0 0 0 0 0 0 0 0 0 0 0 0 0 0 0 0 0 0 0 0 0 0 0 0 0 0 0 0 0 0 0 0 0 0 0 0 0 0 0 0 0 0 0 0 0 0 0 0 0 0 0 0 0 0 0 
0 0 0 0 0 0 0 0 0 0 0 0 0 0 0 0 0 0 0 0 0 0 0 0 0 0 0 0 0 0 0 0 0 0 0 0 0 0 0 0 0 0 0 0 0 0 0 0 0 0 0 0 0 0 0 0 0 0 0 0 0 1 1 0 0 0 0 0 0 0 0 0 0 1 1 0 0 0 0 0 0 0 0 0 0 0 0 0 0 0 0 0 0 0 0 0 0 0 0 0 0 0 0 0 0 0 0 0 0 0 0 0 0 0 0 0 0 0 0 0 0 0 0 0 0 0 0 0 0 0 0 0 0 0 0 0 
0 0 0 0 0 0 0 0 0 0 0 0 0 0 0 0 0 0 0 0 0 0 0 0 0 0 0 0 0 0 0 0 0 0 0 0 0 0 0 0 0 0 0 0 0 0 0 0 0 0 0 0 0 0 0 0 0 0 0 0 0 0 0 0 0 0 0 0 0 0 0 0 0 0 0 0 0 0 0 0 0 0 0 0 0 0 0 0 0 0 0 0 0 0 0 0 0 0 0 0 0 0 0 0 0 0 0 0 0 0 0 0 0 0 0 0 0 0 0 0 0 0 0 0 0 0 0 0 0 0 0 0 0 0 0 0 
0 0 0 0 0 0 0 0 0 0 0 0 0 0 0 0 0 0 0 0 0 0 0 0 0 0 0 0 0 0 0 0 0 0 0 0 0 0 0 0 0 0 0 0 0 0 0 0 0 0 0 0 0 0 0 0 0 0 0 0 0 0 0 0 0 0 0 0 0 0 0 0 0 0 0 0 0 0 0 0 0 0 0 0 0 0 0 0 0 0 0 0 0 0 0 0 0 0 0 0 0 0 0 0 0 0 0 0 0 0 0 0 0 0 0 0 0 0 0 0 0 0 0 0 0 0 0 0 0 0 0 0 0 0 0 0 
0 0 0 0 0 0 0 0 0 0 0 0 0 0 0 0 0 0 0 0 0 0 0 0 0 0 0 0 0 0 0 0 0 0 0 0 0 0 0 0 0 0 0 0 0 0 0 0 0 0 0 0 0 0 0 0 0 0 0 0 0 0 0 0 0 0 0 0 0 0 0 0 0 0 0 0 0 0 0 0 0 0 0 0 0 0 0 0 0 0 0 0 0 0 0 0 0 0 0 0 0 0 0 0 0 0 0 0 0 0 0 0 0 0 0 0 0 0 0 0 0 0 0 0 0 0 0 0 0 0 0 0 0 0 0 0 
0 0 0 0 0 0 0 0 0 0 0 0 0 0 0 0 0 0 0 0 0 0 0 0 0 0 0 0 0 0 0 0 0 0 0 0 0 0 0 0 0 0 0 0 0 0 0 0 0 0 0 0 0 0 0 0 0 0 0 0 0 0 0 0 0 1 1 1 1 1 1 0 0 0 0 0 0 0 0 0 0 0 0 0 0 0 0 0 0 0 0 0 0 0 0 0 0 0 0 0 0 0 0 0 0 0 0 0 0 0 0 0 0 0 0 0 0 0 0 0 0 0 0 0 0 0 0 0 0 0 0 0 0 0 0 0 
0 0 0 0 0 0 0 0 0 0 0 0 0 0 0 0 0 0 0 0 0 0 0 0 0 1 0 0 0 0 0 0 0 0 0 0 0 0 0 0 0 0 0 0 0 0 0 0 0 0 0 0 0 0 0 0 0 0 0 0 0 1 1 0 0 1 1 0 0 1 1 0 0 1 1 0 0 0 0 0 0 0 0 0 0 0 0 0 0 0 0 0 0 0 0 0 0 0 0 0 0 0 0 0 0 0 0 0 0 0 1 0 0 0 0 0 0 0 0 0 0 0 0 0 0 0 0 0 0 0 0 0 0 0 0 0 
0 0 0 0 0 0 0 0 0 0 0 0 0 0 0 0 0 0 0 0 0 0 0 0 1 1 0 0 8 4 1 6 6 2 1 1 1 4 4 0 1 0 0 0 0 0 0 0 0 1 0 0 0 0 0 0 0 0 7 0 3 8 2 10 6 1 0 5 5 0 1 6 10 2 8 3 0 7 0 0 0 0 0 0 0 0 1 0 0 0 0 0 0 0 0 1 0 4 4 1 1 1 2 6 6 1 4 8 0 0 1 1 0 0 0 0 0 0 0 0 0 0 0 0 0 0 0 0 0 0 0 0 0 0 0 0 
0 0 0 0 0 0 0 0 0 0 0 0 0 0 0 0 0 0 0 0 0 0 0 0 1 1 0 2 4 1 16 34 36 26 5 1 9 1 0 4 1 0 0 0 0 0 0 0 1 1 0 0 0 0 0 0 4 0 0 1 5 3 2 2 0 11 11 0 0 11 11 0 2 2 3 5 1 0 0 4 0 0 0 0 0 0 1 1 0 0 0 0 0 0 0 1 4 0 1 9 1 5 26 36 34 16 1 4 2 0 1 1 0 0 0 0 0 0 0 0 0 0 0 0 0 0 0 0 0 0 0 0 0 0 0 0 
0 0 0 0 0 0 0 0 0 0 0 0 0 0 0 0 0 0 0 0 0 0 0 0 1 1 0 7 0 2 43 55 48 47 34 11 1 2 3 0 0 0 0 0 0 0 0 0 1 1 0 0 0 0 0 0 2 0 0 1 7 2 13 10 5 0 2 10 10 2 0 5 10 13 2 7 1 0 0 2 0 0 0 0 0 0 1 1 0 0 0 0 0 0 0 0 0 3 2 1 11 34 47 48 55 43 2 0 7 0 1 1 0 0 0 0 0 0 0 0 0 0 0 0 0 0 0 0 0 0 0 0 0 0 0 0 
0 0 0 0 0 0 0 0 0 0 0 0 0 0 0 0 0 0 0 0 0 0 0 0 0 3 0 8 1 12 59 55 47 42 51 41 2 2 14 1 1 0 0 0 0 0 0 0 1 1 1 0 0 0 0 0 0 3 3 1 5 3 43 47 39 18 2 5 5 2 18 39 47 43 3 5 1 3 3 0 0 0 0 0 0 1 1 1 0 0 0 0 0 0 0 1 1 14 2 2 41 51 42 47 55 59 12 1 8 0 3 0 0 0 0 0 0 0 0 0 0 0 0 0 0 0 0 0 0 0 0 0 0 0 0 0 
0 0 0 0 0 0 0 0 0 0 0 0 0 0 0 0 0 0 0 0 0 0 0 0 0 6 0 5 1 26 61 41 43 28 40 56 43 5 2 11 1 0 0 0 0 0 0 0 1 1 1 0 0 0 0 0 0 3 1 1 6 21 59 59 55 60 39 2 2 39 60 55 59 59 21 6 1 1 3 0 0 0 0 0 0 1 1 1 0 0 0 0 0 0 0 1 11 2 5 43 56 40 28 43 41 61 26 1 5 0 6 0 0 0 0 0 0 0 0 0 0 0 0 0 0 0 0 0 0 0 0 0 0 0 0 0 
0 0 0 0 0 0 0 0 0 0 0 0 0 0 0 0 0 0 0 0 0 0 0 0 0 5 1 2 1 32 57 29 30 35 25 42 62 36 2 11 1 0 0 0 0 0 0 0 1 1 1 0 0 0 1 1 0 1 0 1 8 43 60 48 42 56 58 56 56 58 56 42 48 60 43 8 1 0 1 0 1 1 0 0 0 1 1 1 0 0 0 0 0 0 0 1 11 2 36 62 42 25 35 30 29 57 32 1 2 1 5 0 0 0 0 0 0 0 0 0 0 0 0 0 0 0 0 0 0 0 0 0 0 0 0 0 
0 0 0 0 0 0 0 0 0 0 0 0 0 0 0 0 0 0 0 0 0 0 0 0 2 0 2 1 2 31 49 34 25 38 25 22 52 58 30 2 1 0 0 0 0 0 0 0 1 1 1 0 0 0 1 1 1 1 0 1 4 56 56 35 29 35 62 107 107 62 35 29 35 56 56 4 1 0 1 1 1 1 0 0 0 1 1 1 0 0 0 0 0 0 0 1 2 30 58 52 22 25 38 25 34 49 31 2 1 2 0 2 0 0 0 0 0 0 0 0 0 0 0 0 0 0 0 0 0 0 0 0 0 0 0 0 
0 0 0 0 0 0 0 0 0 0 0 0 0 0 0 0 0 0 0 0 0 0 0 0 5 0 2 1 2 26 43 45 37 20 25 30 32 58 57 6 1 0 0 0 0 0 0 0 1 1 0 0 0 0 0 0 1 4 5 4 2 59 55 37 36 39 68 100 100 68 39 36 37 55 59 2 4 5 4 1 0 0 0 0 0 0 1 1 0 0 0 0 0 0 0 1 6 57 58 32 30 25 20 37 45 43 26 2 1 2 0 5 0 0 0 0 0 0 0 0 0 0 0 0 0 0 0 0 0 0 0 0 0 0 0 0 
0 0 0 0 0 0 0 0 0 0 0 0 0 0 0 0 0 0 0 0 0 0 0 0 0 4 1 1 5 28 49 45 35 22 13 19 32 43 51 58 1 3 3 3 6 0 0 11 0 0 0 4 0 8 0 0 2 14 1 2 12 60 51 40 29 83 99 81 81 99 83 29 40 51 60 12 2 1 14 2 0 0 8 0 4 0 0 0 11 0 0 6 3 3 3 1 58 51 43 32 19 13 22 35 45 49 28 5 1 1 4 0 0 0 0 0 0 0 0 0 0 0 0 0 0 0 0 0 0 0 0 0 0 0 0 0 
0 0 0 0 0 0 0 0 0 0 0 0 0 0 0 0 0 0 0 0 0 0 0 0 0 3 0 1 5 26 48 44 37 34 31 30 29 34 50 62 29 13 0 0 1 4 10 0 5 10 0 0 1 1 0 8 1 2 1 16 4 68 59 39 70 83 82 67 67 82 83 70 39 59 68 4 16 1 2 1 8 0 1 1 0 0 10 5 0 10 4 1 0 0 13 29 62 50 34 29 30 31 34 37 44 48 26 5 1 0 3 0 0 0 0 0 0 0 0 0 0 0 0 0 0 0 0 0 0 0 0 0 0 0 0 0 
0 0 0 0 0 0 0 0 0 0 0 0 0 0 0 0 0 0 0 0 0 0 0 0 0 3 0 1 3 22 45 44 41 40 37 30 18 18 35 52 61 21 1 13 2 0 8 9 1 2 3 0 12 0 0 0 3 4 8 10 6 57 55 70 98 81 63 57 57 63 81 98 70 55 57 6 10 8 4 3 0 0 0 12 0 3 2 1 9 8 0 2 13 1 21 61 52 35 18 18 30 37 40 41 44 45 22 3 1 0 3 0 0 0 0 0 0 0 0 0 0 0 0 0 0 0 0 0 0 0 0 0 0 0 0 0 
0 0 0 0 0 0 0 0 0 0 0 0 0 0 0 0 0 0 0 0 0 0 0 0 0 2 0 1 2 17 41 43 53 47 41 35 30 28 36 47 70 57 4 8 2 3 8 1 6 1 3 1 2 1 4 7 1 3 1 5 15 52 89 116 99 72 52 54 54 52 72 99 116 89 52 15 5 1 3 1 7 4 1 2 1 3 1 6 1 8 3 2 8 4 57 70 47 36 28 30 35 41 47 53 43 41 17 2 1 0 2 0 0 0 0 0 0 0 0 0 0 0 0 0 0 0 0 0 0 0 0 0 0 0 0 0 
0 0 0 0 0 0 0 0 0 0 0 0 0 0 0 0 0 0 0 0 0 0 0 0 0 1 0 2 1 11 37 42 50 44 40 37 35 34 40 47 63 72 52 29 13 3 2 4 7 2 17 17 10 2 12 2 13 4 2 12 6 55 115 114 89 72 60 59 59 60 72 89 114 115 55 6 12 2 4 13 2 12 2 10 17 17 2 7 4 2 3 13 29 52 72 63 47 40 34 35 37 40 44 50 42 37 11 1 2 0 1 0 0 0 0 0 0 0 0 0 0 0 0 0 0 0 0 0 0 0 0 0 0 0 0 0 
0 0 0 0 0 0 0 0 0 0 0 0 0 0 0 0 0 0 0 0 0 0 0 0 0 0 0 3 1 6 34 41 41 39 37 33 25 21 31 43 55 66 71 55 66 33 30 49 62 64 78 81 78 75 70 46 15 22 3 25 17 87 121 113 92 87 80 73 73 80 87 92 113 121 87 17 25 3 22 15 46 70 75 78 81 78 64 62 49 30 33 66 55 71 66 55 43 31 21 25 33 37 39 41 41 34 6 1 3 0 0 0 0 0 0 0 0 0 0 0 0 0 0 0 0 0 0 0 0 0 0 0 0 0 0 0 
0 0 0 0 0 0 0 0 0 0 0 0 0 0 0 0 0 0 0 0 0 0 0 0 0 0 0 3 1 3 30 40 44 42 41 36 27 24 35 49 59 63 68 54 75 79 70 65 68 76 77 76 75 77 73 68 71 70 69 55 60 81 101 94 92 91 87 82 82 87 91 92 94 101 81 60 55 69 70 71 68 73 77 75 76 77 76 68 65 70 79 75 54 68 63 59 49 35 24 27 36 41 42 44 40 30 3 1 3 0 0 0 0 0 0 0 0 0 0 0 0 0 0 0 0 0 0 0 0 0 0 0 0 0 0 0 
0 0 0 0 0 0 0 0 0 0 0 0 0 0 0 0 0 0 0 0 0 0 0 0 1 0 0 4 1 2 29 40 43 37 32 31 32 35 45 55 67 62 67 70 60 73 65 81 60 77 72 65 69 76 70 75 75 43 80 64 70 71 104 97 75 74 77 81 81 77 74 75 97 104 71 70 64 80 43 75 75 70 76 69 65 72 77 60 81 65 73 60 70 67 62 67 55 45 35 32 31 32 37 43 40 29 2 1 4 0 0 1 0 0 0 0 0 0 0 0 0 0 0 0 0 0 0 0 0 0 0 0 0 0 0 0 
0 0 0 0 0 0 0 0 0 0 0 0 0 0 0 0 0 0 0 0 0 0 0 0 0 0 0 8 1 2 30 32 42 48 48 47 53 57 57 57 51 71 68 62 73 77 84 84 63 70 79 74 72 82 58 84 84 69 77 71 71 66 77 113 103 76 60 69 69 60 76 103 113 77 66 71 71 77 69 84 84 58 82 72 74 79 70 63 84 84 77 73 62 68 71 51 57 57 57 53 47 48 48 42 32 30 2 1 8 0 0 0 0 0 0 0 0 0 0 0 0 0 0 0 0 0 0 0 0 0 0 0 0 0 0 0 
0 0 0 0 0 0 0 0 0 0 0 0 0 0 0 0 0 0 0 0 0 0 0 0 0 0 0 6 1 3 31 34 36 46 53 52 47 43 40 38 34 64 75 77 79 75 82 83 61 76 80 81 77 73 50 77 84 78 81 70 64 59 65 91 96 99 89 73 73 89 99 96 91 65 59 64 70 81 78 84 77 50 73 77 81 80 76 61 83 82 75 79 77 75 64 34 38 40 43 47 52 53 46 36 34 31 3 1 6 0 0 0 0 0 0 0 0 0 0 0 0 0 0 0 0 0 0 0 0 0 0 0 0 0 0 0 
0 0 0 0 0 0 0 0 0 0 0 0 0 0 0 0 0 0 0 0 0 0 0 0 1 0 0 2 1 5 32 40 50 44 49 52 41 32 45 59 76 74 72 70 68 65 80 84 66 71 76 80 81 81 69 81 86 71 68 68 77 79 75 81 68 89 98 90 90 98 89 68 81 75 79 77 68 68 71 86 81 69 81 81 80 76 71 66 84 80 65 68 70 72 74 76 59 45 32 41 52 49 44 50 40 32 5 1 2 0 0 1 0 0 0 0 0 0 0 0 0 0 0 0 0 0 0 0 0 0 0 0 0 0 0 0 
0 0 0 0 0 0 0 0 0 0 0 0 0 0 0 0 0 0 0 0 0 0 0 0 1 0 0 1 1 6 29 44 58 53 50 43 36 48 67 73 70 65 70 73 73 72 80 84 75 64 83 82 81 82 51 71 87 72 63 67 71 70 79 118 77 76 86 101 101 86 76 77 118 79 70 71 67 63 72 87 71 51 82 81 82 83 64 75 84 80 72 73 73 70 65 70 73 67 48 36 43 50 53 58 44 29 6 1 1 0 0 1 0 0 0 0 0 0 0 0 0 0 0 0 0 0 0 0 0 0 0 0 0 0 0 0 
0 0 0 0 0 0 0 0 0 0 0 0 0 0 0 0 0 0 0 0 0 0 0 0 0 0 3 1 1 4 21 44 51 61 57 39 43 66 72 63 60 63 71 68 67 74 79 84 74 44 81 82 80 78 62 83 81 71 66 71 68 60 76 126 117 99 86 95 95 86 99 117 126 76 60 68 71 66 71 81 83 62 78 80 82 81 44 74 84 79 74 67 68 71 63 60 63 72 66 43 39 57 61 51 44 21 4 1 1 3 0 0 0 0 0 0 0 0 0 0 0 0 0 0 0 0 0 0 0 0 0 0 0 0 0 0 
0 0 0 0 0 0 0 0 0 0 0 0 0 0 0 0 0 0 0 0 0 0 0 0 0 0 4 0 1 3 9 37 55 56 48 46 60 67 64 60 67 73 76 71 74 80 66 65 83 61 71 82 81 64 76 84 65 72 70 71 75 75 72 101 120 116 102 87 87 102 116 120 101 72 75 75 71 70 72 65 84 76 64 81 82 71 61 83 65 66 80 74 71 76 73 67 60 64 67 60 46 48 56 55 37 9 3 1 0 4 0 0 0 0 0 0 0 0 0 0 0 0 0 0 0 0 0 0 0 0 0 0 0 0 0 0 
0 0 0 0 0 0 0 0 0 0 0 0 0 0 0 0 0 0 0 0 0 0 0 0 0 0 2 0 4 4 3 24 67 58 41 49 67 63 58 70 75 75 70 61 78 84 62 43 83 68 61 82 83 63 81 73 58 83 81 63 61 71 68 84 95 113 111 89 89 111 113 95 84 68 71 61 63 81 83 58 73 81 63 83 82 61 68 83 43 62 84 78 61 70 75 75 70 58 63 67 49 41 58 67 24 3 4 4 0 2 0 0 0 0 0 0 0 0 0 0 0 0 0 0 0 0 0 0 0 0 0 0 0 0 0 0 
0 0 0 0 0 0 0 0 0 0 0 0 0 0 0 0 0 0 0 0 0 0 0 0 2 0 0 0 6 5 3 15 67 70 53 43 63 67 62 69 71 71 64 51 78 84 61 43 82 75 69 79 79 64 83 62 42 85 85 57 55 73 70 75 96 112 111 92 92 111 112 96 75 70 73 55 57 85 85 42 62 83 64 79 79 69 75 82 43 61 84 78 51 64 71 71 69 62 67 63 43 53 70 67 15 3 5 6 0 0 0 2 0 0 0 0 0 0 0 0 0 0 0 0 0 0 0 0 0 0 0 0 0 0 0 0 
0 0 0 0 0 0 0 0 0 0 0 0 0 0 0 0 0 0 0 0 0 0 0 0 2 1 1 0 1 2 4 18 76 58 52 62 63 56 65 77 79 80 75 47 72 84 51 44 68 75 68 73 76 68 77 58 37 83 75 56 64 72 81 71 87 113 135 108 108 135 113 87 71 81 72 64 56 75 83 37 58 77 68 76 73 68 75 68 44 51 84 72 47 75 80 79 77 65 56 63 62 52 58 76 18 4 2 1 0 1 1 2 0 0 0 0 0 0 0 0 0 0 0 0 0 0 0 0 0 0 0 0 0 0 0 0 
0 0 0 0 0 0 0 0 0 0 0 0 0 0 0 0 0 0 0 0 0 0 0 0 2 1 5 2 2 4 6 25 72 60 43 62 67 65 62 57 60 66 71 61 71 83 62 39 62 67 68 70 72 64 66 50 38 81 68 47 70 76 76 66 67 102 133 117 117 133 102 67 66 76 76 70 47 68 81 38 50 66 64 72 70 68 67 62 39 62 83 71 61 71 66 60 57 62 65 67 62 43 60 72 25 6 4 2 2 5 1 2 0 0 0 0 0 0 0 0 0 0 0 0 0 0 0 0 0 0 0 0 0 0 0 0 
0 0 0 0 0 0 0 0 0 0 0 0 0 0 0 0 0 0 0 0 0 0 0 0 1 1 4 1 2 2 5 29 59 64 47 65 71 60 43 54 47 50 53 36 25 51 52 57 65 63 66 61 64 61 62 58 53 55 37 42 43 36 51 54 58 109 128 98 98 128 109 58 54 51 36 43 42 37 55 53 58 62 61 64 61 66 63 65 57 52 51 25 36 53 50 47 54 43 60 71 65 47 64 59 29 5 2 2 1 4 1 1 0 0 0 0 0 0 0 0 0 0 0 0 0 0 0 0 0 0 0 0 0 0 0 0 
0 0 0 0 0 0 0 0 0 0 0 0 0 0 0 0 0 0 0 0 0 0 0 0 1 1 2 0 1 2 4 36 56 58 55 57 69 76 73 75 82 82 84 82 60 45 39 47 66 66 64 54 62 63 65 60 34 35 55 78 82 78 70 45 34 113 130 99 99 130 113 34 45 70 78 82 78 55 35 34 60 65 63 62 54 64 66 66 47 39 45 60 82 84 82 82 75 73 76 69 57 55 58 56 36 4 2 1 0 2 1 1 0 0 0 0 0 0 0 0 0 0 0 0 0 0 0 0 0 0 0 0 0 0 0 0 
0 0 0 0 0 0 0 0 0 0 0 0 0 0 0 0 0 0 0 0 0 0 0 0 1 1 4 1 3 2 7 48 68 46 79 84 83 72 70 83 83 82 75 59 82 82 34 40 56 68 62 57 67 63 61 37 41 80 81 71 75 82 84 84 78 133 127 106 106 127 133 78 84 84 82 75 71 81 80 41 37 61 63 67 57 62 68 56 40 34 82 82 59 75 82 83 83 70 72 83 84 79 46 68 48 7 2 3 1 4 1 1 0 0 0 0 0 0 0 0 0 0 0 0 0 0 0 0 0 0 0 0 0 0 0 0 
0 0 0 0 0 0 0 0 0 0 0 0 0 0 0 0 0 0 0 0 0 0 0 0 1 2 2 1 3 2 12 59 62 80 84 70 52 39 38 77 69 70 84 81 75 81 66 21 50 68 64 59 68 58 49 18 69 78 75 73 67 69 79 77 51 118 133 157 157 133 118 51 77 79 69 67 73 75 78 69 18 49 58 68 59 64 68 50 21 66 81 75 81 84 70 69 77 38 39 52 70 84 80 62 59 12 2 3 1 2 2 1 0 0 0 0 0 0 0 0 0 0 0 0 0 0 0 0 0 0 0 0 0 0 0 0 
0 0 0 0 0 0 0 0 0 0 0 0 0 0 0 0 0 0 0 0 0 0 0 0 0 1 0 1 4 2 19 68 71 84 73 62 61 56 28 62 56 53 81 75 59 75 75 16 49 63 67 61 67 54 38 30 77 53 66 84 71 44 71 56 34 103 118 156 156 118 103 34 56 71 44 71 84 66 53 77 30 38 54 67 61 67 63 49 16 75 75 59 75 81 53 56 62 28 56 61 62 73 84 71 68 19 2 4 1 0 1 0 0 0 0 0 0 0 0 0 0 0 0 0 0 0 0 0 0 0 0 0 0 0 0 0 
0 0 0 0 0 0 0 0 0 0 0 0 0 0 0 0 0 0 0 0 0 1 0 0 1 4 1 1 7 6 28 74 78 82 64 80 63 65 51 33 69 44 42 39 57 78 80 29 41 52 71 65 68 55 30 45 83 57 25 59 40 39 71 26 53 126 123 146 146 123 126 53 26 71 39 40 59 25 57 83 45 30 55 68 65 71 52 41 29 80 78 57 39 42 44 69 33 51 65 63 80 64 82 78 74 28 6 7 1 1 4 1 0 0 1 0 0 0 0 0 0 0 0 0 0 0 0 0 0 0 0 0 0 0 0 0 
0 0 0 0 0 0 0 0 0 0 0 0 0 0 0 0 0 0 0 1 7 2 1 5 6 1 1 2 13 30 55 73 84 67 39 67 72 63 73 67 37 61 58 68 71 78 83 54 56 64 67 67 70 51 37 76 83 75 53 38 61 65 41 46 97 124 153 132 132 153 124 97 46 41 65 61 38 53 75 83 76 37 51 70 67 67 64 56 54 83 78 71 68 58 61 37 67 73 63 72 67 39 67 84 73 55 30 13 2 1 1 6 5 1 2 7 1 0 0 0 0 0 0 0 0 0 0 0 0 0 0 0 0 0 0 0 
0 0 0 0 0 0 0 0 0 0 0 0 0 0 0 0 0 8 6 1 1 1 2 8 1 13 33 50 57 57 65 76 74 46 27 51 58 64 69 70 62 58 44 29 28 64 81 75 64 60 62 60 62 60 61 77 66 54 57 55 43 44 58 71 94 136 154 109 109 154 136 94 71 58 44 43 55 57 54 66 77 61 60 62 60 62 60 64 75 81 64 28 29 44 58 62 70 69 64 58 51 27 46 74 76 65 57 57 50 33 13 1 8 2 1 1 1 6 8 0 0 0 0 0 0 0 0 0 0 0 0 0 0 0 0 0 
0 0 0 0 0 0 0 0 0 0 0 0 0 0 0 0 0 3 2 1 3 2 1 3 33 50 65 72 73 69 72 79 51 50 45 45 49 72 67 64 75 67 69 53 40 64 74 76 69 53 51 48 48 64 72 72 71 43 22 43 56 64 69 64 72 152 124 70 70 124 152 72 64 69 64 56 43 22 43 71 72 72 64 48 48 51 53 69 76 74 64 40 53 69 67 75 64 67 72 49 45 45 50 51 79 72 69 73 72 65 50 33 3 1 2 3 1 2 3 0 0 0 0 0 0 0 0 0 0 0 0 0 0 0 0 0 
0 0 0 0 0 0 0 0 0 0 0 0 0 0 0 0 1 1 1 1 3 2 15 37 68 73 76 77 75 71 72 77 39 54 40 40 41 70 70 74 73 66 73 68 60 70 74 79 76 63 56 53 56 72 78 74 73 73 61 65 72 67 69 73 76 147 98 87 87 98 147 76 73 69 67 72 65 61 73 73 74 78 72 56 53 56 63 76 79 74 70 60 68 73 66 73 74 70 70 41 40 40 54 39 77 72 71 75 77 76 73 68 37 15 2 3 1 1 1 1 0 0 0 0 0 0 0 0 0 0 0 0 0 0 0 0 
0 0 0 0 0 0 0 0 0 0 0 0 0 0 0 0 2 8 3 1 1 23 55 74 76 78 79 80 79 74 69 70 56 70 55 64 48 37 40 58 68 64 64 66 61 64 76 80 78 71 59 58 66 74 79 78 68 70 59 63 70 67 65 55 51 92 96 64 64 96 92 51 55 65 67 70 63 59 70 68 78 79 74 66 58 59 71 78 80 76 64 61 66 64 64 68 58 40 37 48 64 55 70 56 70 69 74 79 80 79 78 76 74 55 23 1 1 3 8 2 0 0 0 0 0 0 0 0 0 0 0 0 0 0 0 0 
0 0 0 0 0 0 0 0 0 0 0 0 0 0 0 1 1 5 1 2 37 67 77 79 80 81 81 81 80 75 67 64 67 82 78 80 69 56 61 65 63 66 59 64 58 56 75 78 77 72 55 54 66 73 77 79 62 55 63 67 54 60 73 66 55 112 116 97 97 116 112 55 66 73 60 54 67 63 55 62 79 77 73 66 54 55 72 77 78 75 56 58 64 59 66 63 65 61 56 69 80 78 82 67 64 67 75 80 81 81 81 80 79 77 67 37 2 1 5 1 1 0 0 0 0 0 0 0 0 0 0 0 0 0 0 0 
0 0 0 0 0 0 0 0 0 0 0 0 0 0 0 1 1 1 2 39 73 81 80 78 82 83 82 81 78 72 65 64 79 82 78 71 61 57 57 51 55 66 64 64 56 54 75 80 79 74 60 60 69 75 79 75 59 44 63 68 52 54 66 65 68 133 133 141 141 133 133 68 65 66 54 52 68 63 44 59 75 79 75 69 60 60 74 79 80 75 54 56 64 64 66 55 51 57 57 61 71 78 82 79 64 65 72 78 81 82 83 82 78 80 81 73 39 2 1 1 1 0 0 0 0 0 0 0 0 0 0 0 0 0 0 0 
0 0 0 0 0 0 0 0 0 0 0 0 0 0 0 1 6 1 22 67 81 81 79 82 82 83 83 81 77 70 64 65 80 72 72 79 81 74 57 52 54 74 80 80 71 61 68 73 80 75 64 65 68 76 79 65 60 60 77 80 75 60 44 58 75 115 148 160 160 148 115 75 58 44 60 75 80 77 60 60 65 79 76 68 65 64 75 80 73 68 61 71 80 80 74 54 52 57 74 81 79 72 72 80 65 64 70 77 81 83 83 82 82 79 81 81 67 22 1 6 1 0 0 0 0 0 0 0 0 0 0 0 0 0 0 0 
0 0 0 0 0 0 0 0 0 1 0 1 1 0 5 3 3 9 57 80 80 79 82 84 83 84 82 76 75 81 70 66 59 77 71 58 54 50 51 42 42 51 51 56 64 55 40 42 76 85 76 71 83 78 50 47 55 73 68 63 56 65 64 77 91 114 149 158 158 149 114 91 77 64 65 56 63 68 73 55 47 50 78 83 71 76 85 76 42 40 55 64 56 51 51 42 42 51 50 54 58 71 77 59 66 70 81 75 76 82 84 83 84 82 79 80 80 57 9 3 3 5 0 1 1 0 1 0 0 0 0 0 0 0 0 0 
0 0 0 0 0 0 0 0 0 3 0 0 1 0 2 1 5 58 81 82 80 83 84 83 83 82 80 75 80 82 73 65 67 46 62 62 56 59 40 35 30 54 68 74 80 76 58 40 34 69 84 84 76 54 38 42 63 73 75 90 78 87 90 94 91 89 107 129 129 107 89 91 94 90 87 78 90 75 73 63 42 38 54 76 84 84 69 34 40 58 76 80 74 68 54 30 35 40 59 56 62 62 46 67 65 73 82 80 75 80 82 83 83 84 83 80 82 81 58 5 1 2 0 1 0 0 3 0 0 0 0 0 0 0 0 0 
0 0 0 0 0 0 0 0 0 3 2 0 1 1 0 2 30 71 83 82 80 82 83 83 83 81 81 78 82 80 74 69 62 45 46 63 64 58 49 23 24 46 61 64 59 49 42 40 48 40 77 78 47 39 43 45 73 88 98 84 47 56 86 115 104 102 97 101 101 97 102 104 115 86 56 47 84 98 88 73 45 43 39 47 78 77 40 48 40 42 49 59 64 61 46 24 23 49 58 64 63 46 45 62 69 74 80 82 78 81 81 83 83 83 82 80 82 83 71 30 2 0 1 1 0 2 3 0 0 0 0 0 0 0 0 0 
0 0 0 0 0 0 0 0 0 3 3 0 1 1 1 14 67 78 81 82 83 83 82 83 82 81 81 79 78 71 69 70 74 78 57 41 50 56 65 60 34 30 45 61 62 54 54 58 52 47 69 67 51 49 65 80 112 130 107 63 58 67 77 101 121 117 97 89 89 97 117 121 101 77 67 58 63 107 130 112 80 65 49 51 67 69 47 52 58 54 54 62 61 45 30 34 60 65 56 50 41 57 78 74 70 69 71 78 79 81 81 82 83 82 83 83 82 81 78 67 14 1 1 1 0 3 3 0 0 0 0 0 0 0 0 0 
0 0 0 0 0 0 0 0 0 0 3 0 0 1 2 38 76 81 81 81 84 84 82 82 82 82 80 81 74 69 71 76 80 81 80 56 46 57 58 75 69 47 34 50 59 56 46 37 52 67 72 75 80 82 84 77 92 104 81 57 89 116 127 136 141 111 76 98 98 76 111 141 136 127 116 89 57 81 104 92 77 84 82 80 75 72 67 52 37 46 56 59 50 34 47 69 75 58 57 46 56 80 81 80 76 71 69 74 81 80 82 82 82 82 84 84 81 81 81 76 38 2 1 0 0 3 0 0 0 0 0 0 0 0 0 0 
0 0 0 0 0 0 0 0 0 0 3 0 0 2 13 62 76 81 81 81 84 83 81 81 82 82 78 80 74 76 78 80 77 74 81 81 67 46 49 60 63 60 52 40 37 45 55 62 78 73 68 89 119 132 122 77 69 51 57 71 95 125 144 145 128 104 83 122 122 83 104 128 145 144 125 95 71 57 51 69 77 122 132 119 89 68 73 78 62 55 45 37 40 52 60 63 60 49 46 67 81 81 74 77 80 78 76 74 80 78 82 82 81 81 83 84 81 81 81 76 62 13 2 0 0 3 0 0 0 0 0 0 0 0 0 0 
0 0 0 0 0 0 0 0 2 0 4 0 2 3 25 77 79 80 82 84 84 82 80 84 80 80 77 78 74 75 80 76 80 78 76 83 78 58 61 50 46 66 70 59 43 29 29 44 47 46 60 78 98 121 127 107 86 64 83 102 115 131 142 131 111 108 96 137 137 96 108 111 131 142 131 115 102 83 64 86 107 127 121 98 78 60 46 47 44 29 29 43 59 70 66 46 50 61 58 78 83 76 78 80 76 80 75 74 78 77 80 80 84 80 82 84 84 82 80 79 77 25 3 2 0 4 0 2 0 0 0 0 0 0 0 0 
0 0 0 0 0 0 0 0 4 0 6 0 3 5 33 82 81 82 82 83 83 82 82 84 81 82 82 80 77 74 81 75 82 83 82 81 84 83 67 53 58 63 63 67 73 64 39 33 45 69 78 47 43 80 97 121 122 132 140 121 107 103 122 120 146 123 95 154 154 95 123 146 120 122 103 107 121 140 132 122 121 97 80 43 47 78 69 45 33 39 64 73 67 63 63 58 53 67 83 84 81 82 83 82 75 81 74 77 80 82 82 81 84 82 82 83 83 82 82 81 82 33 5 3 0 6 0 4 0 0 0 0 0 0 0 0 
0 0 0 0 0 0 0 0 0 0 6 0 5 3 72 80 81 79 83 83 83 82 83 81 81 82 78 82 79 69 77 71 79 84 83 81 77 81 83 82 68 65 60 63 68 70 86 116 124 116 82 79 78 98 117 134 143 129 121 118 115 109 132 146 165 107 106 153 153 106 107 165 146 132 109 115 118 121 129 143 134 117 98 78 79 82 116 124 116 86 70 68 63 60 65 68 82 83 81 77 81 83 84 79 71 77 69 79 82 78 82 81 81 83 82 83 83 83 79 81 80 72 3 5 0 6 0 0 0 0 0 0 0 0 0 0 
0 0 0 0 0 0 0 0 1 0 5 0 2 22 75 80 81 80 83 83 83 81 82 80 81 81 83 79 84 73 71 75 83 86 85 82 80 78 83 82 81 80 73 71 74 71 94 126 137 133 127 120 117 111 121 133 128 125 126 133 135 135 144 151 147 109 117 164 164 117 109 147 151 144 135 135 133 126 125 128 133 121 111 117 120 127 133 137 126 94 71 74 71 73 80 81 82 83 78 80 82 85 86 83 75 71 73 84 79 83 81 81 80 82 81 83 83 83 80 81 80 75 22 2 0 5 0 1 0 0 0 0 0 0 0 0 
0 0 0 0 0 0 0 0 1 0 3 1 1 50 79 80 82 81 83 82 81 80 81 81 83 84 81 79 79 81 75 82 74 74 82 83 85 83 80 77 85 82 82 94 114 109 96 96 108 125 136 133 142 134 139 146 149 147 149 153 152 151 151 151 156 127 111 161 161 111 127 156 151 151 151 152 153 149 147 149 146 139 134 142 133 136 125 108 96 96 109 114 94 82 82 85 77 80 83 85 83 82 74 74 82 75 81 79 79 81 84 83 81 81 80 81 82 83 81 82 80 79 50 1 1 3 0 1 0 0 0 0 0 0 0 0 
0 0 0 0 0 0 0 0 0 1 0 2 2 69 82 81 83 82 81 79 78 78 81 82 82 82 81 78 78 77 82 72 74 72 80 84 84 85 84 83 82 84 125 159 159 131 112 130 122 136 137 135 144 141 142 150 162 162 162 162 154 153 152 154 161 129 110 158 158 110 129 161 154 152 153 154 162 162 162 162 150 142 141 144 135 137 136 122 130 112 131 159 159 125 84 82 83 84 85 84 84 80 72 74 72 82 77 78 78 81 82 82 82 81 78 78 79 81 82 83 81 82 69 2 2 0 1 0 0 0 0 0 0 0 0 0 
0 0 0 0 0 0 0 0 0 1 0 1 5 77 82 80 82 82 80 78 76 77 79 82 83 83 82 81 79 77 80 74 71 71 79 82 82 85 86 90 94 150 165 164 162 163 156 132 147 144 138 141 145 147 147 155 158 158 161 162 153 149 152 161 161 128 117 143 143 117 128 161 161 152 149 153 162 161 158 158 155 147 147 145 141 138 144 147 132 156 163 162 164 165 150 94 90 86 85 82 82 79 71 71 74 80 77 79 81 82 83 83 82 79 77 76 78 80 82 82 80 82 77 5 1 0 1 0 0 0 0 0 0 0 0 0 
0 0 0 0 0 0 0 0 0 1 0 1 12 80 80 80 82 82 81 81 80 79 77 79 83 83 82 83 80 82 71 84 74 70 76 71 79 83 90 97 144 158 165 166 165 165 161 150 150 145 142 151 149 151 151 158 156 157 159 158 153 151 156 164 164 139 124 108 108 124 139 164 164 156 151 153 158 159 157 156 158 151 151 149 151 142 145 150 150 161 165 165 166 165 158 144 97 90 83 79 71 76 70 74 84 71 82 80 83 82 83 83 79 77 79 80 81 81 82 82 80 80 80 12 1 0 1 0 0 0 0 0 0 0 0 0 
0 0 0 0 0 0 0 0 0 1 0 1 25 81 79 81 80 82 82 83 82 81 75 75 76 75 83 82 84 82 69 77 84 81 75 68 74 87 106 114 131 151 164 167 166 166 165 165 161 154 153 156 151 148 150 153 162 163 160 153 154 157 162 166 165 147 126 116 116 126 147 165 166 162 157 154 153 160 163 162 153 150 148 151 156 153 154 161 165 165 166 166 167 164 151 131 114 106 87 74 68 75 81 84 77 69 82 84 82 83 75 76 75 75 81 82 83 82 82 80 81 79 81 25 1 0 1 0 0 0 0 0 0 0 0 0 
0 0 0 0 0 0 0 0 1 1 2 1 35 82 79 82 77 81 80 83 82 81 72 72 79 79 80 84 82 84 78 64 71 73 68 79 80 97 119 129 136 138 158 167 168 168 166 163 164 159 159 158 154 153 159 158 163 163 158 145 153 161 166 167 167 149 105 122 122 105 149 167 167 166 161 153 145 158 163 163 158 159 153 154 158 159 159 164 163 166 168 168 167 158 138 136 129 119 97 80 79 68 73 71 64 78 84 82 84 80 79 79 72 72 81 82 83 80 81 77 82 79 82 35 1 2 1 1 0 0 0 0 0 0 0 0 
0 0 0 0 0 0 0 0 1 3 2 0 50 82 78 71 66 70 79 91 82 80 80 75 85 75 79 92 85 91 82 83 74 67 126 143 123 115 114 113 117 148 156 163 167 168 169 166 162 153 146 145 148 150 154 158 157 158 151 160 165 166 166 165 160 141 118 126 126 118 141 160 165 166 166 165 160 151 158 157 158 154 150 148 145 146 153 162 166 169 168 167 163 156 148 117 113 114 115 123 143 126 67 74 83 82 91 85 92 79 75 85 75 80 80 82 91 79 70 66 71 78 82 50 0 2 3 1 0 0 0 0 0 0 0 0 
0 0 0 0 0 0 0 0 1 1 0 1 41 79 74 71 81 86 84 83 84 83 90 85 73 93 85 65 81 87 96 89 108 129 152 155 152 141 129 121 125 127 135 156 166 167 168 168 167 164 156 146 144 151 158 159 154 158 160 162 164 165 164 159 151 146 137 133 133 137 146 151 159 164 165 164 162 160 158 154 159 158 151 144 146 156 164 167 168 168 167 166 156 135 127 125 121 129 141 152 155 152 129 108 89 96 87 81 65 85 93 73 85 90 83 84 83 84 86 81 71 74 79 41 1 0 1 1 0 0 0 0 0 0 0 0 
0 0 0 0 0 0 0 0 2 0 1 2 30 76 75 76 84 83 86 83 92 84 90 80 77 105 115 126 144 125 124 126 136 136 144 158 165 163 160 151 146 133 137 145 155 163 165 166 166 164 160 155 151 152 158 162 156 164 166 165 163 158 154 150 144 146 141 134 134 141 146 144 150 154 158 163 165 166 164 156 162 158 152 151 155 160 164 166 166 165 163 155 145 137 133 146 151 160 163 165 158 144 136 136 126 124 125 144 126 115 105 77 80 90 84 92 83 86 83 84 76 75 76 30 2 1 0 2 0 0 0 0 0 0 0 0 
0 0 0 0 0 0 0 0 7 1 4 2 19 77 79 79 83 83 77 73 81 85 119 136 124 131 141 143 145 134 131 125 118 115 123 136 149 163 167 165 156 152 146 142 140 152 159 160 162 164 163 159 159 156 154 157 163 166 166 161 154 146 145 149 149 140 138 143 143 138 140 149 149 145 146 154 161 166 166 163 157 154 156 159 159 163 164 162 160 159 152 140 142 146 152 156 165 167 163 149 136 123 115 118 125 131 134 145 143 141 131 124 136 119 85 81 73 77 83 83 79 79 77 19 2 4 1 7 0 0 0 0 0 0 0 0 
0 0 0 0 0 0 0 0 0 1 4 1 15 79 79 78 65 65 64 95 115 132 146 155 153 134 142 141 142 131 142 152 137 132 134 126 127 151 162 165 163 160 152 151 145 148 158 152 156 155 157 159 159 160 158 156 162 160 157 149 142 140 144 152 145 134 140 155 155 140 134 145 152 144 140 142 149 157 160 162 156 158 160 159 159 157 155 156 152 158 148 145 151 152 160 163 165 162 151 127 126 134 132 137 152 142 131 142 141 142 134 153 155 146 132 115 95 64 65 65 78 79 79 15 1 4 1 0 0 0 0 0 0 0 0 0 
0 0 0 0 0 0 0 0 0 6 6 3 23 81 78 72 59 83 99 141 141 137 134 143 162 147 143 144 146 132 122 151 157 157 152 138 143 150 142 154 162 162 156 155 156 160 164 158 153 151 151 156 162 164 164 162 156 149 145 141 143 146 147 151 141 136 137 147 147 137 136 141 151 147 146 143 141 145 149 156 162 164 164 162 156 151 151 153 158 164 160 156 155 156 162 162 154 142 150 143 138 152 157 157 151 122 132 146 144 143 147 162 143 134 137 141 141 99 83 59 72 78 81 23 3 6 6 0 0 0 0 0 0 0 0 0 
0 0 0 0 0 0 0 0 0 9 2 3 28 83 73 68 78 117 127 125 105 112 130 146 152 159 146 132 140 157 154 157 151 160 162 157 158 153 140 152 159 156 151 149 154 162 167 167 155 154 151 150 153 158 160 159 153 145 145 144 148 152 150 149 137 133 128 133 133 128 133 137 149 150 152 148 144 145 145 153 159 160 158 153 150 151 154 155 167 167 162 154 149 151 156 159 152 140 153 158 157 162 160 151 157 154 157 140 132 146 159 152 146 130 112 105 125 127 117 78 68 73 83 28 3 2 9 0 0 0 0 0 0 0 0 0 
0 0 0 0 0 0 0 0 0 6 1 1 25 80 69 70 147 154 140 118 130 142 139 116 119 135 120 117 134 148 148 148 157 158 160 164 166 162 159 153 156 148 141 145 145 137 154 167 162 155 150 153 157 159 160 161 154 148 149 146 149 154 152 149 133 134 134 141 141 134 134 133 149 152 154 149 146 149 148 154 161 160 159 157 153 150 155 162 167 154 137 145 145 141 148 156 153 159 162 166 164 160 158 157 148 148 148 134 117 120 135 119 116 139 142 130 118 140 154 147 70 69 80 25 1 1 6 0 0 0 0 0 0 0 0 0 
0 0 0 0 0 0 0 0 0 0 5 3 14 65 59 144 164 148 135 144 157 150 136 122 119 119 118 111 111 126 138 151 148 157 158 163 166 167 162 165 165 161 155 155 155 148 142 155 166 159 155 147 152 163 161 157 159 147 143 145 147 160 156 138 125 123 139 159 159 139 123 125 138 156 160 147 145 143 147 159 157 161 163 152 147 155 159 166 155 142 148 155 155 155 161 165 165 162 167 166 163 158 157 148 151 138 126 111 111 118 119 119 122 136 150 157 144 135 148 164 144 59 65 14 3 5 0 0 0 0 0 0 0 0 0 0 
0 0 0 0 0 0 0 0 8 13 6 1 2 47 135 165 159 138 148 165 164 146 134 135 137 117 117 113 104 134 125 139 121 130 149 163 166 168 163 167 167 165 160 159 156 146 134 138 159 160 161 154 149 156 158 160 161 153 147 142 149 159 152 129 122 129 134 151 151 134 129 122 129 152 159 149 142 147 153 161 160 158 156 149 154 161 160 159 138 134 146 156 159 160 165 167 167 163 168 166 163 149 130 121 139 125 134 104 113 117 117 137 135 134 146 164 165 148 138 159 165 135 47 2 1 6 13 8 0 0 0 0 0 0 0 0 
0 0 0 0 0 0 0 0 8 5 0 12 11 92 160 165 158 158 164 165 142 133 141 135 146 100 108 106 104 133 124 125 115 107 121 143 156 162 161 165 164 162 160 160 160 158 151 143 149 162 162 155 148 146 149 154 161 156 154 144 153 154 146 126 133 145 141 147 147 141 145 133 126 146 154 153 144 154 156 161 154 149 146 148 155 162 162 149 143 151 158 160 160 160 162 164 165 161 162 156 143 121 107 115 125 124 133 104 106 108 100 146 135 141 133 142 165 164 158 158 165 160 92 11 12 0 5 8 0 0 0 0 0 0 0 0 
0 0 0 0 0 0 0 0 2 0 5 22 29 124 165 165 161 163 166 165 139 132 141 149 140 100 117 106 125 129 129 130 135 123 107 105 133 146 141 129 138 148 156 159 162 165 163 153 149 164 163 157 154 153 156 157 158 156 147 126 132 135 138 136 145 154 151 151 151 151 154 145 136 138 135 132 126 147 156 158 157 156 153 154 157 163 164 149 153 163 165 162 159 156 148 138 129 141 146 133 105 107 123 135 130 129 129 125 106 117 100 140 149 141 132 139 165 166 163 161 165 165 124 29 22 5 0 2 0 0 0 0 0 0 0 0 
0 0 0 0 0 0 0 0 8 1 5 4 58 136 168 167 165 165 164 163 148 140 141 153 125 120 126 114 136 129 133 143 150 146 117 94 128 148 139 118 133 136 138 138 140 145 146 140 137 153 160 162 163 164 164 160 149 138 115 97 119 128 139 147 150 155 154 153 153 154 155 150 147 139 128 119 97 115 138 149 160 164 164 163 162 160 153 137 140 146 145 140 138 138 136 133 118 139 148 128 94 117 146 150 143 133 129 136 114 126 120 125 153 141 140 148 163 164 165 165 167 168 136 58 4 5 1 8 0 0 0 0 0 0 0 0 
0 0 0 0 0 0 0 0 1 3 0 0 96 144 168 167 165 165 163 161 155 146 139 145 132 142 128 122 145 157 150 154 158 151 130 122 136 152 147 139 124 126 129 137 140 137 128 118 120 132 152 162 166 167 162 140 127 121 120 129 151 150 150 157 157 155 155 157 157 155 155 157 157 150 150 151 129 120 121 127 140 162 167 166 162 152 132 120 118 128 137 140 137 129 126 124 139 147 152 136 122 130 151 158 154 150 157 145 122 128 142 132 145 139 146 155 161 163 165 165 167 168 144 96 0 0 3 1 0 0 0 0 0 0 0 0 
0 0 0 0 0 0 0 0 1 14 12 15 85 103 155 165 162 156 164 169 166 150 142 145 129 151 143 137 155 166 153 156 161 149 146 151 137 151 145 139 141 135 130 135 142 141 135 136 128 87 85 85 82 98 100 117 133 140 147 156 165 161 158 162 164 162 158 163 163 158 162 164 162 158 161 165 156 147 140 133 117 100 98 82 85 85 87 128 136 135 141 142 135 130 135 141 139 145 151 137 151 146 149 161 156 153 166 155 137 143 151 129 145 142 150 166 169 164 156 162 165 155 103 85 15 12 14 1 0 0 0 0 0 0 0 0 
0 0 0 0 0 0 0 0 5 1 7 18 92 85 105 137 165 167 170 168 162 156 158 141 131 151 157 144 155 165 151 156 163 151 155 151 111 147 157 158 135 137 140 145 149 144 143 148 134 81 80 76 65 71 80 127 143 151 153 160 165 162 161 165 166 164 162 167 167 162 164 166 165 161 162 165 160 153 151 143 127 80 71 65 76 80 81 134 148 143 144 149 145 140 137 135 158 157 147 111 151 155 151 163 156 151 165 155 144 157 151 131 141 158 156 162 168 170 167 165 137 105 85 92 18 7 1 5 0 0 0 0 0 0 0 0 
0 0 0 0 0 0 0 0 0 1 0 11 55 86 85 86 100 146 166 169 167 164 156 149 151 154 158 140 157 167 152 153 164 164 163 148 74 70 108 159 149 142 144 149 149 153 155 141 93 79 78 80 83 72 96 125 146 150 160 168 165 166 165 166 165 167 168 168 168 168 167 165 166 165 166 165 168 160 150 146 125 96 72 83 80 78 79 93 141 155 153 149 149 144 142 149 159 108 70 74 148 163 164 164 153 152 167 157 140 158 154 151 149 156 164 167 169 166 146 100 86 85 86 55 11 0 1 0 0 0 0 0 0 0 0 0 
0 0 0 0 0 0 0 0 0 0 0 0 28 85 86 85 90 89 95 120 150 163 164 158 159 160 165 152 157 166 156 157 163 165 160 121 68 82 94 111 131 139 134 122 106 91 84 74 70 75 87 76 75 78 125 140 143 150 159 167 166 166 167 169 167 165 165 168 168 165 165 167 169 167 166 166 167 159 150 143 140 125 78 75 76 87 75 70 74 84 91 106 122 134 139 131 111 94 82 68 121 160 165 163 157 156 166 157 152 165 160 159 158 164 163 150 120 95 89 90 85 86 85 28 0 0 0 0 0 0 0 0 0 0 0 0 
0 0 0 0 0 0 0 0 3 1 8 1 14 82 86 86 84 84 88 86 86 102 128 143 166 168 168 167 158 165 152 153 163 164 150 97 62 80 72 58 79 81 71 58 68 67 66 70 82 70 74 78 82 97 137 139 111 98 83 85 94 115 138 153 168 168 168 168 168 168 168 168 153 138 115 94 85 83 98 111 139 137 97 82 78 74 70 82 70 66 67 68 58 71 81 79 58 72 80 62 97 150 164 163 153 152 165 158 167 168 168 166 143 128 102 86 86 88 84 84 86 86 82 14 1 8 1 3 0 0 0 0 0 0 0 0 
0 0 0 0 0 0 0 0 3 0 0 0 0 62 83 86 97 87 85 86 85 86 86 86 89 98 140 136 154 150 161 156 157 141 110 77 76 92 79 81 89 85 80 71 75 74 75 80 80 73 81 85 81 100 137 121 81 83 81 83 83 84 80 76 89 147 167 169 169 167 147 89 76 80 84 83 83 81 83 81 121 137 100 81 85 81 73 80 80 75 74 75 71 80 85 89 81 79 92 76 77 110 141 157 156 161 150 154 136 140 98 89 86 86 86 85 86 85 87 97 86 83 62 0 0 0 0 3 0 0 0 0 0 0 0 0 
0 0 0 0 0 0 0 0 0 5 11 16 4 5 9 38 67 71 79 84 79 74 65 62 30 36 33 50 33 28 33 18 23 29 24 31 25 44 33 38 32 36 23 30 45 46 39 26 23 22 38 32 20 53 82 79 86 90 83 73 74 84 86 86 87 86 102 152 152 102 86 87 86 86 84 74 73 83 90 86 79 82 53 20 32 38 22 23 26 39 46 45 30 23 36 32 38 33 44 25 31 24 29 23 18 33 28 33 50 33 36 30 62 65 74 79 84 79 71 67 38 9 5 4 16 11 5 0 0 0 0 0 0 0 0 0 
0 0 0 0 0 0 0 0 0 3 0 0 0 1 1 12 14 8 6 4 5 2 0 0 7 2 2 6 4 0 15 0 6 0 6 4 5 14 1 2 1 6 12 16 2 3 13 2 13 1 3 5 8 45 88 94 76 81 78 76 78 85 86 85 84 73 46 18 18 46 73 84 85 86 85 78 76 78 81 76 94 88 45 8 5 3 1 13 2 13 3 2 16 12 6 1 2 1 14 5 4 6 0 6 0 15 0 4 6 2 2 7 0 0 2 5 4 6 8 14 12 1 1 0 0 0 3 0 0 0 0 0 0 0 0 0 
0 0 0 0 0 0 0 0 1 3 3 5 6 9 8 1 0 0 2 2 1 1 2 2 3 6 1 15 2 9 5 6 6 10 19 8 1 0 0 18 11 3 0 0 0 8 15 10 5 3 5 8 3 3 58 79 84 81 78 77 70 67 40 5 2 18 13 2 2 13 18 2 5 40 67 70 77 78 81 84 79 58 3 3 8 5 3 5 10 15 8 0 0 0 3 11 18 0 0 1 8 19 10 6 6 5 9 2 15 1 6 3 2 2 1 1 2 2 0 0 1 8 9 6 5 3 3 1 0 0 0 0 0 0 0 0 
0 0 0 0 0 0 0 0 1 0 2 10 0 1 11 1 0 2 5 2 2 2 3 0 0 1 8 5 6 0 5 2 0 3 0 7 0 14 1 1 0 11 5 5 7 0 0 7 8 7 1 1 11 1 8 7 17 2 2 10 1 1 1 3 1 1 1 11 11 1 1 1 3 1 1 1 10 2 2 17 7 8 1 11 1 1 7 8 7 0 0 7 5 5 11 0 1 1 14 0 7 0 3 0 2 5 0 6 5 8 1 0 0 3 2 2 2 5 2 0 1 11 1 0 10 2 0 1 0 0 0 0 0 0 0 0 
0 0 0 0 0 0 0 0 0 0 0 0 0 0 0 0 0 0 0 0 0 0 0 0 0 0 0 0 0 0 0 0 0 1 0 1 0 1 1 0 0 0 0 0 0 0 0 0 0 1 1 1 1 1 2 2 1 2 2 2 2 2 1 0 0 0 1 0 0 1 0 0 0 1 2 2 2 2 2 1 2 2 1 1 1 1 1 0 0 0 0 0 0 0 0 0 0 1 1 0 1 0 1 0 0 0 0 0 0 0 0 0 0 0 0 0 0 0 0 0 0 0 0 0 0 0 0 0 0 0 0 0 0 0 0 0 
0 0 0 0 0 0 0 0 0 0 0 0 0 0 0 0 0 0 0 0 0 0 0 0 0 0 0 0 0 0 0 0 1 1 1 1 1 1 1 1 0 0 0 0 0 0 0 0 0 1 1 1 1 1 2 2 1 1 2 2 2 2 1 1 0 0 0 0 0 0 0 0 1 1 2 2 2 2 1 1 2 2 1 1 1 1 1 0 0 0 0 0 0 0 0 0 1 1 1 1 1 1 1 1 0 0 0 0 0 0 0 0 0 0 0 0 0 0 0 0 0 0 0 0 0 0 0 0 0 0 0 0 0 0 0 0 
